<?xml version="1.0" encoding="UTF-8"?>
<svg version="1.1" xmlns="http://www.w3.org/2000/svg" width="1024" height="1024">
<path d="M0 0 C337.92 0 675.84 0 1024 0 C1024 337.92 1024 675.84 1024 1024 C686.08 1024 348.16 1024 0 1024 C0 686.08 0 348.16 0 0 Z " fill="#FDFDFD" transform="translate(0,0)"/>
<path d="M0 0 C1.21018799 0.39525879 2.42037598 0.79051758 3.66723633 1.19775391 C7.69865599 2.51616189 11.72451056 3.85111545 15.75 5.1875 C17.18081575 5.6616545 18.61164271 6.13577518 20.04248047 6.60986328 C28.31655682 9.35330314 36.58530051 12.11255402 44.85154724 14.87948608 C52.49394627 17.43747978 60.13957786 19.98573901 67.78555298 22.53302002 C71.16314941 23.65835861 74.54055499 24.78426958 77.91796875 25.91015625 C79.57735474 26.46328491 79.57735474 26.46328491 81.27026367 27.02758789 C83.05023804 27.62091268 84.83020769 28.21425169 86.6100769 28.80789185 C90.77895951 30.19809578 94.94853296 31.58620608 99.1186285 32.97276783 C121.60917434 40.45184769 144.07390427 48.00542741 166.5255127 55.6005249 C170.75119084 57.02982598 174.97717381 58.45822525 179.203125 59.88671875 C187.38570157 62.65280374 195.56796272 65.41982021 203.75 68.1875 C203.75 68.8475 203.75 69.5075 203.75 70.1875 C199.52338974 71.83995211 195.29329645 73.48329868 191.0625 75.125 C189.86431641 75.59357422 188.66613281 76.06214844 187.43164062 76.54492188 C185.69624023 77.2168457 185.69624023 77.2168457 183.92578125 77.90234375 C182.86270752 78.31605225 181.79963379 78.72976074 180.7043457 79.15600586 C178.04719537 80.08373581 175.52027098 80.7194429 172.75 81.1875 C172.84337381 87.27501688 172.94943093 93.3621284 173.06738281 99.44921875 C173.10572685 101.52109681 173.14057005 103.59304269 173.171875 105.66503906 C173.21740809 108.63891887 173.27542118 111.61232962 173.3359375 114.5859375 C173.35326431 115.98131241 173.35326431 115.98131241 173.37094116 117.40487671 C173.4007457 118.69598862 173.4007457 118.69598862 173.43115234 120.01318359 C173.45113785 121.15235733 173.45113785 121.15235733 173.4715271 122.31454468 C173.59617052 124.4306226 173.59617052 124.4306226 175.75 126.1875 C176.42578125 128.56640625 176.42578125 128.56640625 177.0625 131.75 C177.31257813 132.98878906 177.56265625 134.22757813 177.8203125 135.50390625 C177.96243164 136.22465332 178.10455078 136.94540039 178.25097656 137.68798828 C178.83577363 140.6171235 179.44529636 143.540728 180.0546875 146.46484375 C180.51616271 148.7056185 180.9770971 150.94650469 181.4375 153.1875 C181.6641333 154.27361572 181.8907666 155.35973145 182.12426758 156.47875977 C182.33462646 157.51701904 182.54498535 158.55527832 182.76171875 159.625 C182.95209717 160.55183594 183.14247559 161.47867188 183.33862305 162.43359375 C183.78000505 165.38836468 183.81947274 168.20429109 183.75 171.1875 C179.07538149 171.51363618 176.58325617 170.89332788 172.75 168.1875 C172.646875 168.93 172.54375 169.6725 172.4375 170.4375 C171.70746496 173.35764018 170.68210602 174.91937554 168.75 177.1875 C166.875 177 166.875 177 164.75 176.1875 C163.22835901 173.29638212 162.75 171.46926588 162.75 168.1875 C161.6775 168.8475 160.605 169.5075 159.5 170.1875 C156.44019314 172.07045807 155.6164136 172.1875 151.75 172.1875 C151.44416121 164.71405462 152.57988374 158.03520315 154.1875 150.75 C154.41759766 149.66267578 154.64769531 148.57535156 154.88476562 147.45507812 C156.59174789 139.50400423 156.59174789 139.50400423 157.75 137.1875 C158.02420918 134.36706274 158.1961907 131.54696953 158.37109375 128.71875 C158.75 126.1875 158.75 126.1875 160.75 124.1875 C160.92532289 121.31861419 160.98137614 118.54757355 160.9453125 115.6796875 C160.9424826 114.83906769 160.93965271 113.99844788 160.93673706 113.13235474 C160.9255243 110.44225954 160.90041803 107.7524949 160.875 105.0625 C160.8649716 103.24089022 160.85584551 101.41927523 160.84765625 99.59765625 C160.82558142 95.12747642 160.79104434 90.65754429 160.75 86.1875 C157.4158135 87.28910148 154.08281386 88.39425334 150.75 89.5 C149.34814453 89.9630957 149.34814453 89.9630957 147.91796875 90.43554688 C142.48040136 92.24173185 137.102096 94.14211299 131.75 96.1875 C129.79317219 96.92069739 127.83502781 97.65040048 125.875 98.375 C124.48667969 98.89126953 124.48667969 98.89126953 123.0703125 99.41796875 C120.75 100.1875 120.75 100.1875 118.75 100.1875 C117.21577774 115.54051095 117.21577774 115.54051095 122.25390625 129.12109375 C125.49234092 130.76490445 125.49234092 130.76490445 129.0390625 131.890625 C133.39308821 133.4122424 136.32861124 135.56555296 139.875 138.4375 C140.41866211 138.86353516 140.96232422 139.28957031 141.52246094 139.72851562 C146.8808825 143.96792297 146.8808825 143.96792297 148.75 146.1875 C148.47032432 150.9419866 146.30389866 155.70171707 144.75 160.1875 C143.780625 159.3625 142.81125 158.5375 141.8125 157.6875 C141.16410156 157.13835937 140.51570313 156.58921875 139.84765625 156.0234375 C138.46787297 154.81580596 137.11958831 153.57104109 135.80859375 152.2890625 C129.26576606 146.0069547 121.85504762 142.09332611 113.75 138.1875 C112.93273437 137.78660156 112.11546875 137.38570312 111.2734375 136.97265625 C107.83267331 135.90207792 104.72020215 135.96099879 101.125 136 C99.15660156 136.00966797 99.15660156 136.00966797 97.1484375 136.01953125 C93.76159237 136.03418563 93.76159237 136.03418563 90.75 137.1875 C89.06523918 137.41282188 87.37531754 137.6005202 85.68359375 137.765625 C52.70807564 141.16585445 17.88237616 147.54130565 -13.1105957 159.74755859 C-18.36120314 160.82727953 -23.60174151 158.53453552 -28.5546875 156.90625 C-37.08440042 154.17767268 -45.68812096 151.857923 -54.375 149.6875 C-55.14835693 149.49362701 -55.92171387 149.29975403 -56.71850586 149.1000061 C-72.1139622 145.26628574 -87.55024167 142.4943689 -103.25 140.1875 C-105.81654941 139.79259595 -108.38295478 139.39675472 -110.94921875 139 C-113.44504537 138.62322617 -115.94113103 138.24816344 -118.4375 137.875 C-120.12939453 137.61722778 -120.12939453 137.61722778 -121.85546875 137.35424805 C-140.33435829 134.69596428 -152.86633193 138.28988161 -168.25 149.1875 C-184.66559791 161.91451588 -190.35499941 183.63188922 -193.25 203.1875 C-194.04214914 209.89055393 -194.56597952 216.61440464 -195.03327942 223.34692383 C-195.23213269 225.95331152 -195.49174298 228.54576516 -195.76196289 231.14550781 C-196.3741304 237.85075994 -196.43023077 244.53219709 -196.453125 251.26171875 C-196.45595238 251.91567942 -196.45877975 252.56964008 -196.46169281 253.24341774 C-196.47656327 256.70484423 -196.48586902 260.16623036 -196.49023438 263.62768555 C-196.49461585 266.45040841 -196.50851123 269.27282507 -196.53125 272.09545898 C-196.67776382 290.6770887 -196.43049827 307.84710371 -189.9375 325.5 C-189.63191162 326.3461084 -189.32632324 327.1922168 -189.01147461 328.06396484 C-179.37937023 354.07439458 -159.56048411 370.39004518 -135.24658203 382.27294922 C-131.58303887 383.95106522 -127.82593479 385.21384151 -123.9609375 386.3359375 C-121.25 387.1875 -121.25 387.1875 -118.171875 388.57421875 C-102.50578197 395.42839987 -84.11290444 398.65498663 -67.25 401.1875 C-65.78022705 401.41179687 -65.78022705 401.41179687 -64.28076172 401.640625 C-47.2710393 404.10434006 -30.40875313 404.45379356 -13.25 404.4375 C-11.67004242 404.43647278 -11.67004242 404.43647278 -10.0581665 404.4354248 C-7.03865869 404.42894378 -4.01943192 404.41258935 -1 404.390625 C-0.08975067 404.38623413 0.82049866 404.38184326 1.7583313 404.37731934 C5.8932764 404.33116108 9.70971026 404.16192282 13.75 403.1875 C15.83177607 403.03880171 17.91549943 402.91623107 20 402.8125 C36.94534377 401.63841724 53.32170411 397.28679944 69.75 393.1875 C70.53810059 392.99510742 71.32620117 392.80271484 72.13818359 392.60449219 C80.73954478 390.50409081 88.67500357 387.79873803 96.75 384.1875 C98.19051545 383.57991492 99.63199196 382.97460537 101.07421875 382.37109375 C110.35153798 378.4416002 118.63380931 374.22109044 126.75 368.1875 C127.60851562 367.58550781 128.46703125 366.98351562 129.3515625 366.36328125 C142.43969341 356.69913505 151.75772168 341.71343285 157 326.5 C157.23428711 325.83073486 157.46857422 325.16146973 157.70996094 324.47192383 C163.03095015 307.98792677 163.19450839 291.6518173 163.08618164 274.4909668 C163.06281455 270.55300902 163.0656115 266.61574306 163.07226562 262.67773438 C163.05801152 249.40027234 162.70980227 236.18088268 161.8515625 222.93359375 C161.77380081 221.71811356 161.69603912 220.50263336 161.61592102 219.25032043 C160.63695311 205.54578468 158.09723252 192.22919757 153.75 179.1875 C159.5 181.0625 159.5 181.0625 161.75 182.1875 C163.12342831 182.2564472 164.50002102 182.27217708 165.875 182.25 C167.793125 182.2190625 167.793125 182.2190625 169.75 182.1875 C170.08 184.8275 170.41 187.4675 170.75 190.1875 C172.544375 190.0328125 172.544375 190.0328125 174.375 189.875 C184.88209099 189.9411864 193.91537228 194.52367978 201.6640625 201.3203125 C208.98826454 211.38766138 208.3115055 222.71070467 208.2109375 234.57421875 C208.20854826 236.4450518 208.20764877 238.31588729 208.2081604 240.1867218 C208.20504794 244.08923574 208.18859955 247.99137827 208.16162109 251.89379883 C208.12757282 256.88013725 208.11999556 261.86607032 208.12151146 266.85251141 C208.12096618 270.70882489 208.10997488 274.56505093 208.09550858 278.42133522 C208.08917483 280.25962476 208.08520976 282.09792413 208.08372116 283.93622398 C208.07935549 286.50802683 208.06178722 289.07941116 208.04052734 291.65112305 C208.04143372 292.39989212 208.04234009 293.14866119 208.04327393 293.92012024 C207.93202887 303.18366781 205.59321124 310.83860307 199.375 317.875 C190.26175121 325.90333822 182.59442367 327.67097626 170.75 328.1875 C170.399375 329.38375 170.04875 330.58 169.6875 331.8125 C160.40447189 359.4013125 139.48484788 379.39315192 113.9140625 392.1328125 C88.96537628 404.1875 88.96537628 404.1875 78.75 404.1875 C78.75 407.1575 78.75 410.1275 78.75 413.1875 C79.68972656 413.27902344 80.62945313 413.37054687 81.59765625 413.46484375 C86.68399777 414.19146397 91.37754947 416.00124189 96.1875 417.75 C97.57098633 418.2440332 97.57098633 418.2440332 98.98242188 418.74804688 C101.2404648 419.55532647 103.49615565 420.36858727 105.75 421.1875 C105.75 421.8475 105.75 422.5075 105.75 423.1875 C104.33911133 424.265625 104.33911133 424.265625 102.33203125 425.4375 C101.20885498 426.09528442 101.20885498 426.09528442 100.06298828 426.76635742 C99.23782715 427.23533447 98.41266602 427.70431152 97.5625 428.1875 C96.28221924 428.91900269 96.28221924 428.91900269 94.97607422 429.6652832 C52.09485573 453.80596553 -1.57102872 473.43233419 -50.98046875 460.1875 C-52.05941406 459.8575 -53.13835937 459.5275 -54.25 459.1875 C-55.82974609 458.79691406 -55.82974609 458.79691406 -57.44140625 458.3984375 C-86.3978845 451.21803617 -112.53222505 437.96378657 -138.25 423.1875 C-138.25 422.5275 -138.25 421.8675 -138.25 421.1875 C-129.34948344 417.73673511 -120.54820555 414.43325304 -111.25 412.1875 C-111.25 409.8775 -111.25 407.5675 -111.25 405.1875 C-112.21679688 404.94515625 -113.18359375 404.7028125 -114.1796875 404.453125 C-121.78090311 402.51313958 -129.07735766 400.41115948 -136.25 397.1875 C-136.87132812 396.91421875 -137.49265625 396.6409375 -138.1328125 396.359375 C-168.19782639 383.0722153 -190.91142445 362.32386379 -203.2890625 331.6875 C-203.60617187 330.8625 -203.92328125 330.0375 -204.25 329.1875 C-205.44625 329.14625 -206.6425 329.105 -207.875 329.0625 C-218.5509105 327.87816761 -228.60543893 322.76097328 -235.4375 314.5625 C-241.20315377 303.82645505 -240.70876772 292.45974316 -240.68359375 280.6171875 C-240.68816328 278.72632664 -240.69347113 276.83546744 -240.69947815 274.9446106 C-240.70837051 270.99930025 -240.7060288 267.05419277 -240.69604492 263.10888672 C-240.68453341 258.07091816 -240.70481997 253.03364828 -240.73396206 247.99577141 C-240.75236259 244.09737763 -240.75202438 240.19915036 -240.74632454 236.30072403 C-240.74617194 234.44370668 -240.75216513 232.58667761 -240.76461601 230.729702 C-240.87153261 212.18045344 -240.87153261 212.18045344 -236.25 205.1875 C-235.73179687 204.37796875 -235.21359375 203.5684375 -234.6796875 202.734375 C-228.40358067 195.48058319 -220.60434817 191.87434967 -211.25 190.1875 C-208.88654744 190.05694738 -206.61976083 190.08875997 -204.25 190.1875 C-204.20875 189.011875 -204.1675 187.83625 -204.125 186.625 C-202.02492554 168.0451746 -189.80958662 150.46037502 -176.125 138.5625 C-170.05242474 133.73712504 -160.27762738 126.1875 -152.25 126.1875 C-152.25 117.2775 -152.25 108.3675 -152.25 99.1875 C-154.23 98.8575 -156.21 98.5275 -158.25 98.1875 C-159.63020404 97.76851234 -160.99821184 97.30629981 -162.34765625 96.796875 C-163.13132568 96.50578857 -163.91499512 96.21470215 -164.72241211 95.91479492 C-166.00450562 95.43103394 -166.00450562 95.43103394 -167.3125 94.9375 C-174.74504479 92.1793061 -182.19654051 89.48846857 -189.6796875 86.87109375 C-190.5016008 86.58354218 -191.3235141 86.2959906 -192.17033386 85.99972534 C-195.50019056 84.83576315 -198.83048334 83.67308356 -202.16213989 82.51428223 C-204.5241761 81.6925548 -206.88518141 80.86791855 -209.24609375 80.04296875 C-210.30127701 79.67769325 -210.30127701 79.67769325 -211.3777771 79.30503845 C-215.75715306 77.77227332 -219.99522887 76.03790754 -224.25 74.1875 C-226.38708757 73.43308538 -228.53267043 72.70213548 -230.6875 72 C-231.73808594 71.65582031 -232.78867187 71.31164062 -233.87109375 70.95703125 C-234.65613281 70.70308594 -235.44117188 70.44914062 -236.25 70.1875 C-236.25 69.5275 -236.25 68.8675 -236.25 68.1875 C-235.17540527 67.83123535 -234.10081055 67.4749707 -232.99365234 67.10791016 C-222.45261961 63.60715581 -211.93534949 60.04118178 -201.42889404 56.43814087 C-187.18402579 51.55407418 -172.9210973 46.73192964 -158.625 42 C-144.56194491 37.34434323 -130.58766397 32.46732001 -116.64453125 27.46484375 C-112.39817103 25.94503591 -108.14672598 24.45742288 -103.86254883 23.0480957 C-101.00582549 22.10706685 -98.15377837 21.15261416 -95.30192566 20.19694519 C-92.22485717 19.16596745 -89.14695816 18.13747959 -86.0690918 17.10888672 C-84.4937129 16.58209164 -82.9185145 16.0547565 -81.34350586 15.52685547 C-72.47035057 12.55333031 -63.58437881 9.64122891 -54.646698 6.86727905 C-48.12527387 4.84290372 -41.66783825 2.73482322 -35.27734375 0.328125 C-34.44009766 0.01746094 -33.60285156 -0.29320312 -32.74023438 -0.61328125 C-31.02983009 -1.24928468 -29.32405881 -1.89788081 -27.62304688 -2.55859375 C-17.50078904 -6.25786145 -9.87113323 -3.27371582 0 0 Z " fill="#213950" transform="translate(528.25,281.8125)"/>
<path d="M0 0 C10.06266129 4.71876301 20.74109834 5.58577836 31.34375 2.0859375 C33.48977137 1.29662471 35.62907931 0.48884818 37.76171875 -0.3359375 C40.04515074 -1.17009979 42.33030885 -1.9995525 44.6171875 -2.82421875 C45.70692871 -3.21947754 46.79666992 -3.61473633 47.91943359 -4.02197266 C74.26032671 -13.27206228 103.09695218 -14.44077477 128.94921875 -3.0859375 C147.16237762 6.25468954 160.68544097 20.83608933 167.77392578 40.16259766 C170.19967893 47.81658935 170.41023244 55.29342295 170.34033203 63.23876953 C170.32424054 65.41112027 170.3402639 67.58161146 170.359375 69.75390625 C170.38374976 85.74181076 166.50657771 98.87550677 155.33984375 110.65234375 C146.47368514 119.04042518 137.15084773 122.38464084 125.05740356 122.30174255 C124.10192371 122.30712809 123.14644386 122.31251363 122.16201007 122.31806237 C118.98173381 122.33229334 115.80187663 122.32525015 112.62158203 122.31811523 C110.33270942 122.32382135 108.04383966 122.33078654 105.75497437 122.33891296 C99.55244606 122.35683318 93.35005932 122.355678 87.14751291 122.34997058 C81.96369311 122.34687694 76.77990042 122.35297318 71.59608448 122.35900933 C58.66485114 122.37385147 45.73370628 122.37024425 32.80247448 122.35814602 C21.59099095 122.34821666 10.37967253 122.36115194 -0.83178554 122.38508021 C-12.36392288 122.40950607 -23.89596467 122.41867135 -35.42812932 122.41242748 C-41.89446873 122.40906063 -48.36067177 122.41145508 -54.82699203 122.42867851 C-60.90920347 122.44417222 -66.99110029 122.44016479 -73.07329941 122.42137337 C-75.3004653 122.41769418 -77.52765463 122.42077629 -79.75479889 122.43125916 C-96.25577225 122.50297375 -108.14976326 121.18439182 -121.05078125 109.9140625 C-123.41874247 107.42094477 -125.27514522 104.85342307 -127.05078125 101.9140625 C-127.50066406 101.19992187 -127.95054687 100.48578125 -128.4140625 99.75 C-137.06221755 84.49455246 -138.0978863 60.82899179 -133.61230469 44.12744141 C-129.62881803 31.5941082 -123.36293883 21.1335618 -114.05078125 11.9140625 C-113.32503906 11.15480469 -112.59929687 10.39554687 -111.8515625 9.61328125 C-83.57164091 -18.18650585 -33.91141127 -16.38940505 0 0 Z " fill="#243D53" transform="translate(494.05078125,468.0859375)"/>
<path d="M0 0 C1.47982716 0.8815472 2.94222051 1.79388451 4.375 2.75 C5.73625 3.5853125 5.73625 3.5853125 7.125 4.4375 C14.4574181 11.97359638 16.79697375 19.81670097 16.72265625 30.09375 C15.98656837 37.83507867 12.2547243 43.75223434 6.375 48.75 C5.6325 49.45125 4.89 50.1525 4.125 50.875 C-3.34712418 55.96963012 -11.75072446 56.90096665 -20.625 55.75 C-26.7248158 53.73879886 -31.4495939 50.66224247 -35.625 45.75 C-36.32625 44.945625 -37.0275 44.14125 -37.75 43.3125 C-43.48090096 35.48026869 -44.02625823 27.12573263 -42.625 17.75 C-39.66381138 9.35996558 -33.31129754 3.52819642 -25.625 -0.625 C-17.54858841 -3.89698213 -7.83937721 -3.784931 0 0 Z " fill="#5DEDF8" transform="translate(440.625,502.25)"/>
<path d="M0 0 C1.52946237 0.91057544 3.03265905 1.86737243 4.5 2.875 C5.15613281 3.30941406 5.81226563 3.74382812 6.48828125 4.19140625 C11.58271847 8.02041581 14.70921092 12.77217934 16.5 18.875 C17.72046471 27.90828807 17.33800167 35.71297293 12.26171875 43.60546875 C6.66495128 50.81549513 -0.30261991 55.07269716 -9.45703125 56.2578125 C-17.71867521 56.57597594 -24.54176257 55.11411665 -31.015625 49.81640625 C-38.42461043 42.73007018 -41.55512549 36.36579649 -41.8125 26.125 C-41.71891553 17.6504063 -38.76246893 11.56473319 -33.07421875 5.375 C-24.28608959 -2.99880049 -11.0480092 -5.27792759 0 0 Z " fill="#5FEEF8" transform="translate(610.5,502.125)"/>
<path d="M0 0 C7.82450232 0.6770092 13.89453967 1.6556581 19.4375 7.625 C22.20564809 11.8325851 22.16018927 15.10213891 22.17700195 20.02636719 C22.18357315 20.85582855 22.19014435 21.68528992 22.19691467 22.53988647 C22.21666786 25.29221686 22.22831544 28.04449259 22.23828125 30.796875 C22.24235678 31.73635231 22.2464323 32.67582962 22.25063133 33.64377594 C22.27150181 38.61733278 22.28579866 43.59086195 22.29516602 48.56445312 C22.30622576 53.70043552 22.34061785 58.83598409 22.38033772 63.9718132 C22.40649312 67.92153729 22.41485695 71.87115792 22.41844749 75.820961 C22.42331712 77.7139707 22.43494179 79.60697568 22.45348549 81.49990082 C22.47785164 84.15230062 22.47691654 86.80357706 22.4699707 89.45605469 C22.48278076 90.23550446 22.49559082 91.01495422 22.50878906 91.81802368 C22.45086246 97.89926631 20.37414374 101.24460689 16.39453125 105.86328125 C11.81026889 110.06269196 8.12037607 110.85264581 2 111 C2.14219971 110.07558105 2.28439941 109.15116211 2.4309082 108.19873047 C3.99087975 97.12518737 4.27801074 86.29537149 4.1875 75.125 C4.17859821 73.299887 4.16989277 71.47477304 4.16137695 69.6496582 C4.02345955 46.23456425 2.79708258 23.25551818 0 0 Z " fill="#E8EAEB" transform="translate(701,485)"/>
<path d="M0 0 C0.09854767 5.77489326 -0.26231013 11.33056897 -0.9375 17.0625 C-2.830124 33.25494981 -3.18640064 49.31003717 -3.18530273 65.59863281 C-3.1875036 69.25597536 -3.20575989 72.91302247 -3.22460938 76.5703125 C-3.22754178 78.92708232 -3.2295276 81.28385355 -3.23046875 83.640625 C-3.23765427 84.71797913 -3.24483978 85.79533325 -3.25224304 86.90533447 C-3.23406717 93.00136294 -2.69848327 98.67055362 -1.42939758 104.63763428 C-1 107 -1 107 -1 111 C-6.84085674 110.59718229 -10.37735881 109.887221 -15 106 C-19.70079258 99.9016745 -20.15174443 95.37518461 -20.20874023 87.85424805 C-20.21852402 87.03585449 -20.2283078 86.21746094 -20.23838806 85.37426758 C-20.26826468 82.67010103 -20.28970418 79.96598357 -20.30859375 77.26171875 C-20.31516558 76.3363563 -20.3217374 75.41099384 -20.32850838 74.4575901 C-20.36106573 69.56069085 -20.38552721 64.66381304 -20.4050293 59.7668457 C-20.4228494 55.71899766 -20.45768595 51.67184532 -20.50756836 47.62426758 C-20.56779959 42.73069997 -20.59850831 37.83777782 -20.60820198 32.94385719 C-20.61675104 31.08232926 -20.63555569 29.22081834 -20.6649456 27.35950279 C-20.7039327 24.75021827 -20.70488644 22.14344304 -20.69702148 19.53393555 C-20.71702209 18.77057388 -20.73702271 18.00721222 -20.75762939 17.22071838 C-20.68588097 11.89836461 -19.14304833 9.22979043 -15.49551487 5.38343525 C-10.99495097 1.22016087 -6.14703854 -0.61470385 0 0 Z " fill="#E2E4E6" transform="translate(321,485)"/>
<path d="M0 0 C3.98348405 2.89189537 6.19108795 5.72067621 7.91015625 10.38671875 C8.80832608 17.25337195 8.65311525 22.99859284 4.47265625 28.69921875 C0.26249849 33.24618913 -3.91729302 35.89153277 -10.09765625 36.625 C-17.40983862 36.88133112 -23.59426576 34.83362334 -29.58984375 30.63671875 C-33.65267302 24.54247485 -33.9607565 16.48465766 -33.08984375 9.38671875 C-30.36466972 3.72674191 -26.0060362 -0.22146213 -20.33984375 -2.92578125 C-12.49765819 -4.58470512 -6.92569553 -4.18558369 0 0 Z " fill="#A9FCFD" transform="translate(611.08984375,512.61328125)"/>
<path d="M0 0 C3.72782365 3.16236725 6.46959365 6.30269967 7.9375 11 C7.958125 11.99 7.97875 12.98 8 14 C8.02449219 14.66257812 8.04898438 15.32515625 8.07421875 16.0078125 C8.15744987 19.47791017 8.10331629 22.69005112 7 26 C6.34 26 5.68 26 5 26 C4.79375 26.556875 4.5875 27.11375 4.375 27.6875 C1.87590137 31.89052951 -1.56321326 34.35803146 -5.9375 36.3125 C-13.67803515 38.05017116 -18.98118308 36.16341044 -26 33 C-26 32.34 -26 31.68 -26 31 C-26.598125 30.95875 -27.19625 30.9175 -27.8125 30.875 C-30 30 -30 30 -31.75 27.75 C-33.93791815 21.18624555 -34.03219006 14.15391408 -31.875 7.5625 C-24.01203985 -3.18354554 -12.20673184 -6.68041143 0 0 Z " fill="#AAFCFD" transform="translate(440,512)"/>
<path d="M0 0 C1.15156586 -0.00100708 2.30313171 -0.00201416 3.48959351 -0.00305176 C30.79812264 0.01305262 57.50530774 1.7279774 84.3125 7.25 C85.58843018 7.50765137 85.58843018 7.50765137 86.89013672 7.77050781 C89.34644558 8.27129491 91.79894159 8.78665417 94.25 9.3125 C94.95382812 9.46259521 95.65765625 9.61269043 96.3828125 9.76733398 C101.21511774 10.85682253 105.70395501 12.43232806 110.3125 14.25 C110.3125 14.58 110.3125 14.91 110.3125 15.25 C104.7581914 14.75407959 99.35374584 13.92039506 93.875 12.875 C91.74356265 12.47015435 89.61202645 12.06583255 87.48046875 11.66162109 C86.06352045 11.3925924 84.64684064 11.1221447 83.23046875 10.85009766 C27.3069377 0.25253586 -46.8659255 0.81309521 -100.62109375 22.4296875 C-102.6875 23.25 -102.6875 23.25 -104.8125 23.125 C-107.28764001 21.96993466 -108.28503752 20.56406309 -109.6875 18.25 C-109.6875 17.59 -109.6875 16.93 -109.6875 16.25 C-85.83751813 9.7777932 -62.362235 3.54551084 -37.6875 1.25 C-36.76316162 1.15267578 -35.83882324 1.05535156 -34.88647461 0.95507812 C-23.29406262 -0.12891762 -11.63223346 0.00704915 0 0 Z " fill="#F1F3F4" transform="translate(508.6875,359.75)"/>
<path d="M0 0 C0.09855387 5.77525691 -0.26505951 11.33018156 -0.9375 17.0625 C-1.75144007 24.27773962 -2.32794315 31.44754367 -2.65625 38.703125 C-3 42 -3 42 -5 49 C-12.425 49.99 -12.425 49.99 -20 51 C-20.14889585 45.43167699 -20.2574727 39.86452532 -20.32958984 34.29467773 C-20.35966736 32.40221967 -20.40054133 30.50989991 -20.45263672 28.61791992 C-20.52585497 25.88946343 -20.55954542 23.16285717 -20.5859375 20.43359375 C-20.61690521 19.59477158 -20.64787292 18.7559494 -20.67977905 17.89170837 C-20.68297001 12.25665941 -19.41656632 9.4142652 -15.49942017 5.35180664 C-10.94283595 1.2438048 -6.16888253 -0.61688825 0 0 Z " fill="#F3F5F5" transform="translate(321,485)"/>
<path d="M0 0 C3.85962114 0.32003492 6.23282843 1.61169475 9.3125 3.875 C18.80973003 10.32010227 27.76195219 11.16246779 39 10 C47.10782205 8.3667094 54.09414921 5.90585079 60 0 C64.55555556 0.55555556 64.55555556 0.55555556 66 2 C66.5 5.1875 66.5 5.1875 66 9 C62.06553989 14.22950184 55.94861244 16.74061876 50 19 C48.96875 19.391875 47.9375 19.78375 46.875 20.1875 C33.71762762 23.90588785 19.79049794 22.94990087 7.55078125 16.76171875 C5.60469936 15.59982513 3.80186451 14.37242752 2 13 C1.175 12.38125 0.35 11.7625 -0.5 11.125 C-2.68465597 8.0300707 -2.40955198 5.68596784 -2 2 C-1.34 1.34 -0.68 0.68 0 0 Z " fill="#284056" transform="translate(482,613)"/>
<path d="M0 0 C0.33 0 0.66 0 1 0 C2.05919929 11.47565411 2.11858428 22.86185009 2.0625 34.375 C2.05747067 36.19010292 2.05291032 38.0052072 2.04882812 39.8203125 C2.03794598 44.21357608 2.02076194 48.60677246 2 53 C3.37285156 52.45859375 3.37285156 52.45859375 4.7734375 51.90625 C5.96195313 51.4421875 7.15046875 50.978125 8.375 50.5 C9.55835938 50.0359375 10.74171875 49.571875 11.9609375 49.09375 C15 48 15 48 17 48 C17 35.79 17 23.58 17 11 C17.33 11 17.66 11 18 11 C18.10158627 17.86836079 18.17154375 24.73652717 18.21972656 31.60546875 C18.23981709 33.94115438 18.26709461 36.27678987 18.30175781 38.61230469 C18.35038691 41.97343331 18.37299492 45.33389575 18.390625 48.6953125 C18.41127014 49.73615997 18.43191528 50.77700745 18.45318604 51.84939575 C18.45545872 59.22554644 17.17392956 62.31638832 12.39453125 67.86328125 C7.81026889 72.06269196 4.12037607 72.85264581 -2 73 C-1.8570752 72.18724609 -1.71415039 71.37449219 -1.56689453 70.53710938 C0.59698925 56.24224741 0.21973835 41.92346617 0.125 27.5 C0.11379581 24.82682629 0.10582713 22.15365487 0.09765625 19.48046875 C0.07581089 12.98689816 0.04249954 6.49346656 0 0 Z " fill="#C1C7CB" transform="translate(705,523)"/>
<path d="M0 0 C0.33 0 0.66 0 1 0 C1.01981934 1.00264893 1.03963867 2.00529785 1.06005859 3.03833008 C1.13694906 6.8089025 1.22552686 10.5791302 1.31738281 14.34936523 C1.35533196 15.97169112 1.39023972 17.59409145 1.421875 19.21655273 C1.58654205 27.56054067 1.76684669 35.65833073 3.58447266 43.8425293 C4 46 4 46 4 50 C-1.84085674 49.59718229 -5.37735881 48.887221 -10 45 C-14.14867411 39.61793629 -15.1420154 35.92929336 -15.0625 29.25 C-15.05347656 28.26515625 -15.04445313 27.2803125 -15.03515625 26.265625 C-15.02355469 25.51796875 -15.01195312 24.7703125 -15 24 C-14.38125 24.45375 -13.7625 24.9075 -13.125 25.375 C-9.06766323 27.6690205 -9.06766323 27.6690205 0 29 C0 19.43 0 9.86 0 0 Z " fill="#C0C6C9" transform="translate(316,546)"/>
<path d="M0 0 C6.98682262 0.65027305 13.7122213 1.86964118 20.5625 3.375 C21.55185547 3.58382813 22.54121094 3.79265625 23.56054688 4.0078125 C29.27085709 5.25066701 34.5854157 6.79811198 40 9 C40 9.33 40 9.66 40 10 C26.53046705 8.79736313 13.23865585 5.68196907 0 3 C0 2.01 0 1.02 0 0 Z " fill="#EEEFF1" transform="translate(579,365)"/>
<path d="M0 0 C0 0.33 0 0.66 0 1 C-8.44532805 0.24595285 -16.68741223 -1.37828042 -25 -3 C-25 -3.33 -25 -3.66 -25 -4 C-16.29765961 -6.44753323 -8.14388279 -2.91822467 0 0 Z " fill="#C2C9D1" transform="translate(619,374)"/>
<path d="M0 0 C0.99 0.33 1.98 0.66 3 1 C-1.5 5.875 -1.5 5.875 -6 7 C-4.02 4.69 -2.04 2.38 0 0 Z " fill="#2E485D" transform="translate(300,478)"/>
<path d="M0 0 C-3.20380017 2.13586678 -4.01939967 2.23132175 -7.6875 2.125 C-8.89986328 2.09792969 -8.89986328 2.09792969 -10.13671875 2.0703125 C-11.05904297 2.03550781 -11.05904297 2.03550781 -12 2 C-12 1.67 -12 1.34 -12 1 C-7.58774263 -0.47075246 -4.51718381 -1.36884358 0 0 Z " fill="#C4CBCF" transform="translate(573,681)"/>
<path d="M0 0 C2.31 0.66 4.62 1.32 7 2 C7 2.66 7 3.32 7 4 C5.35 4.33 3.7 4.66 2 5 C1.34 3.35 0.68 1.7 0 0 Z " fill="#2E4964" transform="translate(725,348)"/>
<path d="M0 0 C1.32 0 2.64 0 4 0 C4 0.66 4 1.32 4 2 C3.071875 2.4021875 3.071875 2.4021875 2.125 2.8125 C-0.2995233 3.95556848 -0.2995233 3.95556848 -2 7 C-2.125 4.625 -2.125 4.625 -2 2 C-1.34 1.34 -0.68 0.68 0 0 Z " fill="#2F465D" transform="translate(482,613)"/>
<path d="M0 0 C-0.33 0.99 -0.66 1.98 -1 3 C-2.65 2.67 -4.3 2.34 -6 2 C-6 1.34 -6 0.68 -6 0 C-3.50907189 -1.24546405 -2.58919267 -0.7767578 0 0 Z " fill="#3E566B" transform="translate(298,350)"/>
</svg>
