<?xml version="1.0" encoding="UTF-8"?>
<svg version="1.1" xmlns="http://www.w3.org/2000/svg" width="1024" height="1024">
<path d="M0 0 C337.92 0 675.84 0 1024 0 C1024 337.92 1024 675.84 1024 1024 C686.08 1024 348.16 1024 0 1024 C0 686.08 0 348.16 0 0 Z " fill="#FDFDFD" transform="translate(0,0)"/>
<path d="M0 0 C4.01339281 1.49572707 8.06962723 2.86596978 12.12329102 4.24798584 C13.05065063 4.5648233 13.97801025 4.88166077 14.93347168 5.20809937 C16.88975988 5.87599358 18.8462661 6.54324953 20.80297852 7.2098999 C23.74390254 8.21239992 26.68362881 9.21835524 29.62329102 10.22454834 C39.30997707 13.53227588 49.01131194 16.75297651 58.79321289 19.76751709 C63.81364604 21.32567954 68.79740831 22.98617645 73.77954102 24.66204834 C75.85244368 25.35610057 77.92536077 26.05010975 79.99829102 26.74407959 C81.55870117 27.2673584 81.55870117 27.2673584 83.15063477 27.8012085 C88.19154564 29.49016537 93.23569957 31.16936844 98.27954102 32.84954834 C99.76901245 33.34636108 99.76901245 33.34636108 101.28857422 33.85321045 C106.22543091 35.49989698 111.1633528 37.1432295 116.10375977 38.77923584 C122.16706646 40.7887051 128.22435937 42.81574008 134.27954102 44.84954834 C134.89468567 45.0555365 135.50983032 45.26152466 136.14361572 45.47375488 C140.12286999 46.80632091 144.09917988 48.14717062 148.07217407 49.49829102 C149.3663754 49.93716407 150.66143046 50.3735284 151.95736694 50.80725098 C153.77024241 51.41461386 155.57965639 52.03227884 157.38891602 52.65032959 C158.43015625 53.00264648 159.47139648 53.35496338 160.54418945 53.71795654 C163.17826628 54.80765184 165.10108587 56.03058392 167.27954102 57.84954834 C165.34766917 58.7985919 163.4086389 59.73306495 161.46704102 60.66204834 C160.3880957 61.18411865 159.30915039 61.70618896 158.19750977 62.24407959 C153.41185521 64.36886326 148.34279032 65.57010353 143.27954102 66.84954834 C143.37298549 71.37058957 143.47905732 75.89108947 143.59692383 80.41156006 C143.63524402 81.94988855 143.67009158 83.48830759 143.70141602 85.02679443 C143.74700161 87.2362711 143.80500441 89.44512282 143.86547852 91.65423584 C143.88280533 92.68869339 143.88280533 92.68869339 143.90048218 93.74404907 C143.92905124 97.74156374 143.92905124 97.74156374 146.27954102 100.84954834 C146.83874046 103.05999642 147.30236551 105.29498925 147.71704102 107.53704834 C147.9717789 108.89520958 148.22700154 110.25327997 148.48266602 111.61126709 C148.6122168 112.31042236 148.74176758 113.00957764 148.87524414 113.72991943 C149.27073933 115.80340325 149.69803345 117.86731154 150.13891602 119.93157959 C150.2775708 120.58875977 150.41622559 121.24593994 150.55908203 121.92303467 C150.94663871 123.7532021 151.33760478 125.58264658 151.72875977 127.41204834 C152.29562942 130.94995821 152.37534526 134.27285663 152.27954102 137.84954834 C148.65425534 138.0509531 146.41452393 137.70731599 143.27954102 135.84954834 C142.90829102 137.05611084 142.90829102 137.05611084 142.52954102 138.28704834 C141.27954102 140.84954834 141.27954102 140.84954834 139.15454102 141.66204834 C138.53579102 141.72392334 137.91704102 141.78579834 137.27954102 141.84954834 C136.61954102 140.19954834 135.95954102 138.54954834 135.27954102 136.84954834 C134.72266602 137.17954834 134.16579102 137.50954834 133.59204102 137.84954834 C130.96787324 138.98432359 129.1074549 138.9245842 126.27954102 138.84954834 C126.81155295 130.13388268 128.0783644 121.72139695 129.77954102 113.16204834 C130.00512695 111.98448975 130.23071289 110.80693115 130.46313477 109.59368896 C132.14409257 100.98499679 132.14409257 100.98499679 133.27954102 99.84954834 C133.43812944 97.70568177 133.530834 95.55687996 133.59594727 93.40814209 C133.6378418 92.10296631 133.67973633 90.79779053 133.72290039 89.45306396 C133.76271709 88.06439504 133.80242927 86.67572312 133.84204102 85.28704834 C133.8852209 83.89445651 133.92883502 82.50187806 133.97290039 81.10931396 C134.07939978 77.68950033 134.18141025 74.26961071 134.27954102 70.84954834 C126.30811159 73.14255883 118.48340263 75.8008743 110.65454102 78.53704834 C108.86209961 79.16063232 108.86209961 79.16063232 107.03344727 79.79681396 C104.11481828 80.81249685 101.19708636 81.83075688 98.27954102 82.84954834 C97.94954102 89.77954834 97.61954102 96.70954834 97.27954102 103.84954834 C100.24954102 104.83954834 103.21954102 105.82954834 106.27954102 106.84954834 C109.86157227 108.97064209 109.86157227 108.97064209 113.09204102 111.28704834 C113.63795898 111.66925537 114.18387695 112.0514624 114.74633789 112.44525146 C121.17986718 117.02729349 121.17986718 117.02729349 123.27954102 119.84954834 C123.23266602 122.86517334 123.23266602 122.86517334 122.52954102 126.09954834 C122.30782227 127.17720459 122.08610352 128.25486084 121.85766602 129.36517334 C121.57149414 130.59493896 121.57149414 130.59493896 121.27954102 131.84954834 C120.61954102 131.84954834 119.95954102 131.84954834 119.27954102 131.84954834 C118.23198357 130.70378238 117.24144384 129.50561274 116.27954102 128.28704834 C109.5110686 120.38817126 98.81215857 112.55648408 88.12841797 111.67132568 C59.65280429 111.14915322 25.57825273 118.66418814 -0.90185547 128.94256592 C-7.07430794 131.20008625 -11.45769877 130.62992049 -17.72045898 128.84954834 C-18.7890918 128.57755615 -19.85772461 128.30556396 -20.95874023 128.02532959 C-22.48047852 127.59800537 -22.48047852 127.59800537 -24.03295898 127.16204834 C-26.92600556 126.38065895 -29.82294234 125.61417858 -32.72045898 124.84954834 C-33.68290527 124.59511963 -34.64535156 124.34069092 -35.63696289 124.07855225 C-50.79785212 120.1210206 -65.95053301 116.93526222 -81.40795898 114.41204834 C-82.2001886 114.28058411 -82.99241821 114.14911987 -83.80865479 114.01367188 C-99.85153614 111.37412639 -111.34152489 110.41653494 -125.62670898 119.74798584 C-141.83549203 132.09985967 -146.12996516 150.20516402 -149.1315918 169.4911499 C-151.25585035 185.33033971 -150.9478014 201.46372459 -151.03295898 217.41204834 C-151.04267731 218.49731812 -151.05239563 219.58258789 -151.06240845 220.70074463 C-151.25689029 246.34909737 -148.29762777 272.78324771 -129.63452148 292.16204834 C-110.05282996 310.22130272 -81.39520455 318.08344127 -55.72045898 322.84954834 C-54.59160278 323.06562744 -54.59160278 323.06562744 -53.43994141 323.28607178 C-23.94778105 328.62259893 9.8520797 328.5010899 39.27954102 322.84954834 C40.43325195 322.6445874 41.58696289 322.43962646 42.77563477 322.22845459 C45.99680895 321.56780613 49.1158505 320.74792371 52.27954102 319.84954834 C53.09712891 319.62283447 53.9147168 319.39612061 54.75708008 319.16253662 C68.12848424 315.42164325 80.80656463 310.95597421 93.27954102 304.84954834 C94.33657227 304.34681396 95.39360352 303.84407959 96.48266602 303.32611084 C103.39160709 299.83304287 108.80613475 295.29389228 114.27954102 289.84954834 C114.83254883 289.33134521 115.38555664 288.81314209 115.95532227 288.27923584 C130.27637863 273.53356595 133.397522 250.21148812 133.48266602 230.67767334 C133.48963501 229.60977066 133.496604 228.54186798 133.50378418 227.44160461 C133.52116108 223.99421245 133.52750842 220.54698254 133.52954102 217.09954834 C133.5305481 215.92782074 133.53155518 214.75609314 133.53259277 213.54885864 C133.5189832 190.20224095 132.64310676 167.46120326 126.27954102 144.84954834 C128.07413046 145.07762325 129.86529551 145.33277137 131.65454102 145.59954834 C132.65227539 145.73876709 133.65000977 145.87798584 134.67797852 146.02142334 C137.27954102 146.84954834 137.27954102 146.84954834 138.63110352 148.74017334 C139.27954102 150.84954834 139.27954102 150.84954834 139.27954102 153.84954834 C140.24891602 153.78767334 141.21829102 153.72579834 142.21704102 153.66204834 C150.52098791 153.695532 158.87388989 157.61162505 164.81860352 163.33001709 C169.39702701 168.53763913 170.5264436 172.95402946 170.5859375 179.77606201 C170.59426102 180.45323273 170.60258453 181.13040344 170.61116028 181.82809448 C170.63517416 184.0579613 170.64402335 186.28753482 170.65063477 188.51751709 C170.65961041 190.07825299 170.66873242 191.63898806 170.67799377 193.19972229 C170.6944649 196.47047001 170.70217996 199.74111564 170.70507812 203.01190186 C170.71044808 207.18019923 170.74807743 211.34752112 170.79382229 215.51554394 C170.82373806 218.7405792 170.83080487 221.96538416 170.83180428 225.19054604 C170.8359809 226.72579713 170.84831125 228.26105056 170.86932182 229.79616356 C170.99310491 239.62566723 170.54162126 248.22921152 163.50584412 255.7440033 C156.54874056 262.19616351 149.59020565 264.03211039 140.27954102 263.84954834 C140.11454102 265.00454834 139.94954102 266.15954834 139.77954102 267.34954834 C135.80026034 284.99195356 123.5267568 300.25985511 108.58520508 309.94818115 C101.46039591 314.37115556 94.15272238 317.95232154 86.27954102 320.84954834 C84.57106969 321.57839161 82.86273715 322.30756032 81.15454102 323.03704834 C76.81570862 324.78768483 72.93585526 325.50463617 68.27954102 325.84954834 C68.27954102 328.48954834 68.27954102 331.12954834 68.27954102 333.84954834 C69.06586914 333.78767334 69.85219727 333.72579834 70.66235352 333.66204834 C75.47434276 333.91148191 79.6073191 335.32924222 84.15454102 336.84954834 C85.03368164 337.13572021 85.91282227 337.42189209 86.81860352 337.71673584 C88.97493978 338.41988897 91.12830202 339.13098228 93.27954102 339.84954834 C90.25794816 343.18547407 87.26333296 345.12279589 83.26391602 347.16204834 C82.09473633 347.76275146 80.92555664 348.36345459 79.72094727 348.98236084 C78.49055426 349.60490639 77.26008498 350.22730122 76.02954102 350.84954834 C74.81434105 351.4712484 73.59949385 352.09363849 72.38500977 352.71673584 C70.05060071 353.91084629 67.71352038 355.09975192 65.37353516 356.28289795 C63.55522722 357.20360197 61.74028313 358.1311028 59.93359375 359.07440186 C55.35959468 361.444335 50.74413663 363.21287111 45.84204102 364.78704834 C45.06272217 365.04010742 44.28340332 365.2931665 43.48046875 365.55389404 C41.8678939 366.07373832 40.25403403 366.58961326 38.63891602 367.10150146 C37.12416575 367.58175755 35.61098503 368.06700875 34.09985352 368.55853271 C14.30437324 374.9791857 -9.45911189 380.14260532 -29.85717773 373.70111084 C-32.33313001 372.96474304 -34.69240132 372.47028313 -37.22827148 372.00970459 C-53.48372385 368.84158858 -70.11359603 362.62871996 -84.72045898 354.84954834 C-86.17935547 354.07345215 -86.17935547 354.07345215 -87.66772461 353.28167725 C-94.71133176 349.51818127 -101.72524787 345.70217238 -108.72045898 341.84954834 C-108.72045898 341.18954834 -108.72045898 340.52954834 -108.72045898 339.84954834 C-93.16009452 334.29373968 -93.16009452 334.29373968 -84.72045898 333.84954834 C-84.72045898 331.20954834 -84.72045898 328.56954834 -84.72045898 325.84954834 C-85.75170898 325.78767334 -86.78295898 325.72579834 -87.84545898 325.66204834 C-103.50212504 323.60556856 -121.10819683 314.44735637 -132.72045898 303.84954834 C-133.59959961 303.06193115 -134.47874023 302.27431396 -135.38452148 301.46282959 C-145.5952713 291.82871992 -153.40629023 280.31235636 -157.72045898 266.84954834 C-157.72045898 265.85954834 -157.72045898 264.86954834 -157.72045898 263.84954834 C-158.79295898 263.97329834 -159.86545898 264.09704834 -160.97045898 264.22454834 C-167.92576719 264.21217235 -174.56500792 260.56202262 -179.75170898 256.10345459 C-184.79723272 250.55090518 -185.96667561 244.92722894 -186.01098633 237.48651123 C-186.01770355 236.7751149 -186.02442078 236.06371857 -186.03134155 235.33076477 C-186.05023721 232.99450573 -186.05424112 230.65853514 -186.05639648 228.32220459 C-186.06282921 226.68844996 -186.06955792 225.05469647 -186.0765686 223.42094421 C-186.08851948 220.00234303 -186.09225158 216.58384275 -186.09106445 213.16522217 C-186.09086114 208.79614718 -186.11818532 204.42772175 -186.15260887 200.0588007 C-186.17490062 196.686346 -186.17890134 193.31404723 -186.177845 189.94152641 C-186.18019668 188.33124995 -186.18899578 186.7209689 -186.20450974 185.11076546 C-186.22422138 182.85404662 -186.21831338 180.59872379 -186.20629883 178.34197998 C-186.20914886 177.06101944 -186.2119989 175.7800589 -186.2149353 174.46028137 C-185.25634968 167.46055936 -181.26679702 162.76941463 -175.92749023 158.36126709 C-169.90586806 154.23672234 -163.86421886 153.45988871 -156.72045898 153.84954834 C-156.60959961 152.68165771 -156.49874023 151.51376709 -156.38452148 150.31048584 C-155.02108054 139.5122236 -149.60066489 129.14410064 -142.72045898 120.84954834 C-142.1494043 120.15474365 -141.57834961 119.45993896 -140.98999023 118.74407959 C-133.97843827 111.01492743 -124.50864167 106.1122759 -114.72045898 102.84954834 C-114.72045898 95.91954834 -114.72045898 88.98954834 -114.72045898 81.84954834 C-117.69045898 81.18954834 -120.66045898 80.52954834 -123.72045898 79.84954834 C-126.03426081 78.99028413 -128.32763823 78.07371615 -130.59545898 77.09954834 C-136.48400165 74.63677574 -142.43265985 72.59880152 -148.53295898 70.72454834 C-155.07260289 68.70898401 -161.41261553 66.51157402 -167.72045898 63.84954834 C-170.42528232 62.75740677 -173.13554134 61.67897575 -175.84545898 60.59954834 C-177.16064948 60.07372254 -178.47576088 59.54769886 -179.79077148 59.02142334 C-180.75756836 58.63470459 -181.72436523 58.24798584 -182.72045898 57.84954834 C-182.72045898 57.18954834 -182.72045898 56.52954834 -182.72045898 55.84954834 C-181.47135742 55.42657471 -180.22225586 55.00360107 -178.93530273 54.56781006 C-174.22282955 52.9712898 -169.51152593 51.37134119 -164.80053711 49.77044678 C-162.77610634 49.08301325 -160.75137529 48.39646325 -158.72631836 47.71087646 C-148.55694248 44.26738483 -138.41631994 40.79229033 -128.38423157 36.96546936 C-121.82016576 34.47598357 -115.1664733 32.27860747 -108.49536133 30.09573364 C-96.5004829 26.16706023 -84.59786829 22.06777459 -72.78393555 17.621521 C-63.0408117 13.97649525 -53.26743071 10.6589098 -43.25976562 7.82049561 C-35.99129486 5.71728211 -28.93925915 3.07463717 -21.86499023 0.40032959 C-13.12010115 -2.88643995 -8.90810708 -3.37978683 0 0 Z " fill="#153C5C" transform="translate(519.720458984375,251.15045166015625)"/>
<path d="M0 0 C11.62460527 9.80768132 19.38285299 22.78068192 21 38 C22.39373498 64.8342378 22.39373498 64.8342378 17 75 C16.57589844 75.81082031 16.15179687 76.62164062 15.71484375 77.45703125 C11.11539136 85.18257384 4.6024163 90.58635052 -3.98661613 93.35930252 C-10.84096213 94.81665492 -17.99115621 94.41438427 -24.96899414 94.38818359 C-26.78983372 94.39225322 -28.61067083 94.39759729 -30.4315033 94.40411377 C-35.35703229 94.41774566 -40.28237196 94.41250605 -45.2079041 94.40297651 C-50.37179767 94.39535966 -55.53567547 94.40243104 -60.6995697 94.40713501 C-69.36883442 94.41258617 -78.03802235 94.40541721 -86.70727539 94.39111328 C-96.72015885 94.37478287 -106.73285906 94.38008072 -116.74573809 94.3965925 C-125.35490644 94.41021942 -133.96401974 94.41212127 -142.5731954 94.40427649 C-147.70976256 94.39960728 -152.84624367 94.39895454 -157.98280525 94.40888596 C-162.81166067 94.41757107 -167.64028044 94.41150546 -172.46911049 94.39420319 C-174.2379543 94.39024682 -176.00681804 94.39135778 -177.77565384 94.39799118 C-180.19644977 94.40623049 -182.61649797 94.39585704 -185.0372467 94.38095093 C-186.07865856 94.39098918 -186.07865856 94.39098918 -187.14110905 94.40123022 C-196.72769195 94.28730141 -205.33899856 89.73440303 -211.984375 82.984375 C-221.98077364 70.42479722 -222.34074536 52.33224142 -221 37 C-218.74335662 21.01058249 -210.59426148 9.22584918 -198.5625 -1.08984375 C-182.04064516 -13.50840899 -162.94219224 -14.9328036 -143 -13 C-131.1290945 -11.02995442 -119.71638521 -7.14249589 -108.52197266 -2.81030273 C-98.94381237 0.26713328 -90.72055667 -2.8581028 -81.72827148 -6.21459961 C-76.08547649 -8.31596265 -70.4976932 -10.04239285 -64.625 -11.375 C-63.94219971 -11.53000977 -63.25939941 -11.68501953 -62.5559082 -11.84472656 C-40.28771231 -16.72954255 -18.59551348 -13.74924496 0 0 Z " fill="#113B59" transform="translate(611,407)"/>
<path d="M0 0 C6.40050326 -0.29933578 11.25673959 0.2821566 16.46484375 4.1796875 C20.98026727 8.42358221 24.23083989 12.71175025 24.66015625 19.07421875 C24.63695312 20.03714844 24.61375 21.00007813 24.58984375 21.9921875 C24.57179688 22.96800781 24.55375 23.94382812 24.53515625 24.94921875 C24.51195312 25.68527344 24.48875 26.42132813 24.46484375 27.1796875 C25.26277344 27.416875 26.06070313 27.6540625 26.8828125 27.8984375 C31.36290448 29.50091315 35.5142586 31.57675624 39.77734375 33.6796875 C64.31160566 45.5824685 89.43485812 56.45789946 114.8515625 66.33203125 C118.50854349 67.76270499 121.99448783 69.3437944 125.46484375 71.1796875 C124.81939946 74.66508667 123.36349978 77.20787807 121.46484375 80.1796875 C115.61859774 79.6247247 110.88973717 77.2767059 105.65234375 74.8046875 C89.38977565 67.17199089 80.06895537 66.32692167 63.09765625 72.3984375 C44.64809613 79.31226358 27.43852681 90.30069492 11.23291016 101.36181641 C-1.3794085 109.88830881 -14.70658577 117.79053785 -28.53515625 124.1796875 C-27.28605469 124.54578125 -26.03695312 124.911875 -24.75 125.2890625 C-2.39031462 132.12619602 18.00267812 142.35044099 34.46484375 159.1796875 C35.22796875 159.9428125 35.99109375 160.7059375 36.77734375 161.4921875 C37.33421875 162.0490625 37.89109375 162.6059375 38.46484375 163.1796875 C42.19894847 161.85828777 44.91285269 160.25589932 47.96484375 157.7421875 C48.83882812 157.02675781 49.7128125 156.31132812 50.61328125 155.57421875 C53.08801469 153.49612067 55.54465528 151.39855533 57.99682617 149.29394531 C63.58264611 144.51025768 69.28355239 139.92579861 75.15234375 135.4921875 C75.8479541 134.96270508 76.54356445 134.43322266 77.26025391 133.88769531 C82.22110024 130.1796875 82.22110024 130.1796875 84.46484375 130.1796875 C85.1096606 134.01276541 85.25669853 137.35898817 84.46484375 141.1796875 C81.65194243 144.85990007 78.16870399 147.43363431 74.46484375 150.1796875 C72.85735948 151.46722305 71.2531198 152.75882118 69.65234375 154.0546875 C68.84152344 154.6940625 68.03070313 155.3334375 67.1953125 155.9921875 C63.90622947 158.62721826 60.68139965 161.33192649 57.46484375 164.0546875 C56.90047607 164.53147949 56.3361084 165.00827148 55.75463867 165.49951172 C53.58969415 167.33689416 51.47361171 169.17091954 49.46484375 171.1796875 C59.86001668 182.20842627 72.79280628 194.28900834 87.46484375 199.1796875 C89 201.796875 89 201.796875 90.52734375 205.0546875 C92.05045966 208.27144629 93.488468 211.21512387 95.46484375 214.1796875 C79.00159013 211.40656721 63.83955379 198.68309992 51.46484375 188.1796875 C50.89008301 187.6959668 50.31532227 187.21224609 49.72314453 186.71386719 C43.81273659 181.70455719 43.81273659 181.70455719 41.46484375 179.1796875 C41.46484375 178.5196875 41.46484375 177.8596875 41.46484375 177.1796875 C40.8716333 176.91615479 40.27842285 176.65262207 39.66723633 176.38110352 C37.37394565 175.13010214 35.99900754 173.86002923 34.2265625 171.95703125 C30.51954966 168.14345536 26.52453858 164.93182645 22.27734375 161.7421875 C21.52976807 161.17870605 20.78219238 160.61522461 20.01196289 160.03466797 C17.8370388 158.40598542 15.65332568 156.79008968 13.46484375 155.1796875 C12.40523437 154.39722656 11.345625 153.61476563 10.25390625 152.80859375 C-10.18551243 138.44500227 -36.6274699 131.18822706 -61.53515625 133.1796875 C-65.03651226 133.82753198 -68.45040893 134.60717773 -71.890625 135.5234375 C-74.53515625 136.1796875 -74.53515625 136.1796875 -77.53515625 136.1796875 C-77.51453125 137.1284375 -77.49390625 138.0771875 -77.47265625 139.0546875 C-78.46047908 145.89988235 -84.60001945 150.6114428 -89.53515625 154.9296875 C-96.46813264 159.69610877 -105.48651375 159.33491853 -113.53515625 158.1796875 C-122.00831851 155.83261079 -127.12521022 150.33002141 -131.8515625 143.19140625 C-135.79224696 135.90045348 -135.99914374 126.63715565 -133.875 118.71875 C-132.93768441 116.66558252 -131.88090226 114.9900363 -130.53515625 113.1796875 C-130.06078125 112.49390625 -129.58640625 111.808125 -129.09765625 111.1015625 C-124.66148125 105.3430661 -119.55151082 102.0703739 -112.53515625 100.1796875 C-103.19868868 98.9743446 -95.2820805 99.58390556 -87.53515625 105.1796875 C-82.99999059 108.8801073 -79.67380671 112.6443569 -77.53515625 118.1796875 C-77.53515625 119.1696875 -77.53515625 120.1596875 -77.53515625 121.1796875 C-63.43281738 121.08960492 -50.64738129 120.61393309 -37.53515625 115.1796875 C-36.81134766 114.88642578 -36.08753906 114.59316406 -35.34179688 114.29101562 C-15.97797217 106.35069194 1.20354357 94.99496506 18.74169922 83.71533203 C56.84953579 59.25488109 56.84953579 59.25488109 69.46484375 60.1796875 C69.46484375 59.5196875 69.46484375 58.8596875 69.46484375 58.1796875 C68.63235107 58.08526367 67.7998584 57.99083984 66.94213867 57.89355469 C62.9208636 57.06801173 59.49354057 55.53657029 55.828125 53.7578125 C55.10803757 53.4159491 54.38795013 53.07408569 53.64604187 52.72186279 C51.3530467 51.63149701 49.06512195 50.53095094 46.77734375 49.4296875 C44.51206173 48.34773287 42.24577726 47.26789795 39.97946167 46.18811035 C38.51443138 45.48975562 37.04984475 44.79046931 35.58572388 44.09020996 C29.91190272 41.37930724 24.20551047 38.74634169 18.46484375 36.1796875 C18.20316406 36.79457031 17.94148437 37.40945313 17.671875 38.04296875 C15.45292228 41.97101773 11.1405886 43.67696404 6.96484375 44.9296875 C-1.01395342 45.72756722 -6.0948518 44.6081377 -12.72265625 39.9296875 C-18.12197021 34.6503583 -20.61980416 28.96079865 -20.84765625 21.4296875 C-20.74499787 15.07420071 -18.96936711 10.85214028 -14.69921875 6.1640625 C-9.79546832 1.54213681 -6.65252804 0.47151971 0 0 Z " fill="#20C2A6" transform="translate(241.53515625,299.8203125)"/>
<path d="M0 0 C4.45648446 3.61499028 6.71226499 7.05544651 8.02734375 12.64453125 C8.66004627 20.36350202 7.19568584 27.18497998 2.46484375 33.45703125 C-2.28688301 38.51456221 -8.75153306 40.77798579 -15.59765625 41.14453125 C-21.54636464 40.849728 -26.11045908 38.3205087 -30.47265625 34.39453125 C-30.96765625 33.81703125 -31.46265625 33.23953125 -31.97265625 32.64453125 C-36.57808313 34.07646699 -40.89592121 35.91005696 -45.2421875 37.98046875 C-45.92262619 38.30109283 -46.60306488 38.62171692 -47.30412292 38.95205688 C-49.46598014 39.97138065 -51.62565629 40.9952243 -53.78515625 42.01953125 C-78.36776469 53.64453125 -78.36776469 53.64453125 -80.97265625 53.64453125 C-80.97265625 54.30453125 -80.97265625 54.96453125 -80.97265625 55.64453125 C-80.29460938 55.8146875 -79.6165625 55.98484375 -78.91796875 56.16015625 C-77.98726562 56.4025 -77.0565625 56.64484375 -76.09765625 56.89453125 C-75.19273437 57.1265625 -74.2878125 57.35859375 -73.35546875 57.59765625 C-65.2223278 60.1146098 -57.76273001 63.61729678 -50.34765625 67.76953125 C-49.4757666 68.25397705 -48.60387695 68.73842285 -47.70556641 69.23754883 C-40.44605446 73.30667186 -33.39796702 77.65785246 -26.37744141 82.12207031 C0.51501389 100.02178834 0.51501389 100.02178834 30.02734375 112.64453125 C30.94644531 112.92941406 31.86554688 113.21429688 32.8125 113.5078125 C43.35005707 116.37674739 54.16945097 116.37991854 65.02734375 116.64453125 C65.13949219 115.90074219 65.25164062 115.15695312 65.3671875 114.390625 C67.0007027 107.5955884 72.48904263 102.90851417 77.90234375 98.87109375 C85.09930214 94.71696703 92.95576239 94.71572403 101.02734375 95.64453125 C108.27026924 98.12051916 113.78808388 102.30608804 118.02734375 108.64453125 C118.43855469 109.19238281 118.84976563 109.74023438 119.2734375 110.3046875 C123.49157652 116.94570222 122.86812982 125.12249876 122.02734375 132.64453125 C119.87744852 140.52058974 114.72171735 146.15402408 108.02734375 150.64453125 C98.92560128 155.22776999 91.17087941 155.86779028 81.484375 152.68359375 C73.57009204 149.33669507 68.3634143 143.53915527 64.71484375 135.89453125 C64.02734375 133.64453125 64.02734375 133.64453125 64.02734375 130.64453125 C63.21910156 130.58394531 62.41085937 130.52335938 61.578125 130.4609375 C60.50949219 130.37714844 59.44085937 130.29335938 58.33984375 130.20703125 C57.28410156 130.12582031 56.22835937 130.04460937 55.140625 129.9609375 C52.02734375 129.64453125 52.02734375 129.64453125 49.63671875 129.12890625 C25.13045546 124.57983941 -1.83860793 134.10881742 -21.97265625 147.64453125 C-31.82836917 154.48356167 -40.84804825 161.9866323 -49.51611328 170.26464844 C-52.52866283 173.11864275 -55.63126843 175.8732402 -58.7265625 178.63671875 C-60.11890283 179.88134993 -61.50337073 181.13492451 -62.875 182.40234375 C-73.23740102 191.82270831 -94.81720082 210.64453125 -108.97265625 210.64453125 C-107.13033513 206.73738647 -104.7595705 203.31357807 -102.3125 199.765625 C-100.82341323 197.59561957 -100.82341323 197.59561957 -99.97265625 194.64453125 C-97.92578125 193.35546875 -97.92578125 193.35546875 -95.22265625 192.01953125 C-82.90775517 185.52795548 -72.9061588 177.25287823 -62.97265625 167.64453125 C-64.46172462 163.98288772 -66.44810761 162.19203965 -69.53515625 159.76953125 C-70.99501953 158.60744141 -70.99501953 158.60744141 -72.484375 157.421875 C-73.0314209 156.98858887 -73.5784668 156.55530273 -74.14208984 156.10888672 C-77.74564034 153.22623856 -81.2911047 150.27229749 -84.84765625 147.33203125 C-86.28212954 146.14792543 -87.71700719 144.96430924 -89.15234375 143.78125 C-89.80984619 143.23291504 -90.46734863 142.68458008 -91.14477539 142.11962891 C-92.69430436 140.86916089 -94.32120373 139.71553187 -95.9609375 138.5859375 C-97.97265625 136.64453125 -97.97265625 136.64453125 -98.4609375 133.84765625 C-98.37392578 132.38585937 -98.37392578 132.38585937 -98.28515625 130.89453125 C-98.21748047 129.41726563 -98.21748047 129.41726563 -98.1484375 127.91015625 C-98.09042969 127.1625 -98.03242187 126.41484375 -97.97265625 125.64453125 C-93.66565876 127.10922709 -90.54735518 129.28929771 -86.97265625 132.08203125 C-86.40869141 132.52160156 -85.84472656 132.96117187 -85.26367188 133.4140625 C-80.70246221 136.99823169 -76.27994943 140.7357009 -71.87817383 144.51269531 C-66.08834951 149.45602318 -60.04833749 154.06042478 -53.97265625 158.64453125 C-50.35790578 157.11074951 -48.02667606 154.92832377 -45.22265625 152.20703125 C-27.54149289 135.71106215 -6.32603392 125.27514595 17.02734375 119.64453125 C16.04378906 119.21785156 15.06023437 118.79117188 14.046875 118.3515625 C1.6779149 112.83743348 -9.58402638 105.93650094 -20.97265625 98.64453125 C-41.83118368 85.33879606 -62.30178459 72.39277074 -85.97265625 64.64453125 C-86.68808594 64.40734375 -87.40351562 64.17015625 -88.140625 63.92578125 C-98.04782071 61.01302739 -105.85579446 64.95288817 -114.97265625 68.64453125 C-116.45765625 69.13953125 -116.45765625 69.13953125 -117.97265625 69.64453125 C-118.63265625 66.01453125 -119.29265625 62.38453125 -119.97265625 58.64453125 C-114.80751095 56.26061803 -109.66667914 53.90473628 -104.375 51.81640625 C-98.318527 49.4124314 -92.36725828 46.7833441 -86.41015625 44.14453125 C-85.33830078 43.67144531 -84.26644531 43.19835937 -83.16210938 42.7109375 C-73.69091972 38.52855283 -64.23064704 34.32213423 -54.78515625 30.08203125 C-53.92212891 29.69595703 -53.05910156 29.30988281 -52.16992188 28.91210938 C-48.56724508 27.29407473 -45.00430444 25.66065659 -41.484375 23.8671875 C-38.97265625 22.64453125 -38.97265625 22.64453125 -36.97265625 22.64453125 C-37.0190625 21.94328125 -37.06546875 21.24203125 -37.11328125 20.51953125 C-37.36355401 13.94093298 -37.02410664 8.99019496 -32.97265625 3.64453125 C-23.77097019 -6.06626449 -11.39500969 -7.88601157 0 0 Z " fill="#704AC0" transform="translate(794.97265625,304.35546875)"/>
<path d="M0 0 C2.69663979 0.9906487 5.09090246 2.43058229 7.56201172 3.88183594 C27.95422985 15.84649749 50.3057367 24.51821632 73.67871094 28.16772461 C77.03027344 28.74584961 77.03027344 28.74584961 79.03027344 29.74584961 C79.11277344 29.20959961 79.19527344 28.67334961 79.28027344 28.12084961 C81.27329794 21.80960537 85.48217053 17.97687938 91.03027344 14.74584961 C96.87003112 12.79926371 103.59606524 12.72077082 109.28027344 15.24584961 C114.81623097 18.43529016 119.64022313 23.79904196 122.03027344 29.74584961 C122.96617107 37.0020949 121.84336261 42.83514683 117.51855469 48.84741211 C113.14570618 54.25205634 109.31693162 57.16430298 102.23730469 58.12475586 C95.35525412 58.53471324 91.28995906 57.42526677 85.87011719 53.15600586 C83.97848632 51.54740832 83.97848632 51.54740832 81.03027344 50.74584961 C78.62130174 51.5002983 78.62130174 51.5002983 75.99902344 52.78100586 C74.4622998 53.48954712 74.4622998 53.48954712 72.89453125 54.21240234 C71.78432617 54.73906494 70.67412109 55.26572754 69.53027344 55.80834961 C68.37624023 56.34983643 67.22220703 56.89132324 66.03320312 57.44921875 C54.30167892 63.00496288 42.73291365 68.85705997 31.30322266 75.01098633 C28.0412072 76.74005405 24.74591924 78.38690902 21.44042969 80.03100586 C11.12711243 84.74207453 11.12711243 84.74207453 4.78027344 93.35522461 C4.84209593 96.95638461 5.37642626 100.21165603 6.03027344 103.74584961 C4.98193231 111.19458922 0.96139631 116.61919703 -4.82128906 121.21850586 C-11.65162484 125.88544843 -19.74498373 127.74230884 -27.96972656 126.74584961 C-36.19332512 125.0229478 -43.07369394 120.98912089 -47.78222656 113.93334961 C-49.15793534 111.65072454 -49.93036156 110.02369332 -50.30566406 107.37475586 C-50.73370174 104.47836756 -51.08552804 103.0231543 -52.96972656 100.74584961 C-58.10032445 98.94986657 -63.30519789 98.10210331 -68.65087891 97.18188477 C-79.28912143 95.18147403 -89.29744249 90.4215507 -99.15722656 86.12084961 C-100.80766968 85.40143188 -100.80766968 85.40143188 -102.49145508 84.66748047 C-103.52971436 84.20607666 -104.56797363 83.74467285 -105.63769531 83.26928711 C-106.56864014 82.85598145 -107.49958496 82.44267578 -108.45874023 82.0168457 C-110.96972656 80.74584961 -110.96972656 80.74584961 -114.96972656 77.74584961 C-112.98972656 75.10584961 -111.00972656 72.46584961 -108.96972656 69.74584961 C-104.19550274 71.16220268 -99.82080587 73.16091095 -95.32885742 75.27514648 C-86.91437201 79.23558057 -78.79507006 82.79026407 -69.74707031 85.02709961 C-66.96972656 85.74584961 -66.96972656 85.74584961 -64.46191406 86.76928711 C-61.70039807 87.85138585 -59.07905287 88.37801144 -56.15722656 88.87084961 C-55.18140625 89.03842773 -54.20558594 89.20600586 -53.20019531 89.37866211 C-52.09611328 89.56041992 -52.09611328 89.56041992 -50.96972656 89.74584961 C-50.79957031 88.64563477 -50.79957031 88.64563477 -50.62597656 87.52319336 C-49.09641478 81.04986939 -44.91438386 76.06205931 -39.53222656 72.30834961 C-32.44315164 68.05018647 -25.17008337 66.50988495 -16.96972656 67.74584961 C-10.35289485 70.16151833 -4.48027348 73.26875692 0.03027344 78.74584961 C3.52442687 77.4232853 6.7148824 75.88496732 9.95214844 74.02319336 C10.88663818 73.48911865 11.82112793 72.95504395 12.78393555 72.40478516 C13.77272705 71.83671143 14.76151855 71.2686377 15.78027344 70.68334961 C29.99808218 62.58425847 44.40858111 54.97649346 59.07080078 47.7175293 C62.39501649 46.06908941 65.71221907 44.40664527 69.03027344 42.74584961 C71.03024332 41.74578938 73.03023802 40.74577877 75.03027344 39.74584961 C74.25127686 39.57045654 73.47228027 39.39506348 72.66967773 39.21435547 C46.4793398 33.26034021 21.86981003 25.53481593 -1.15722656 11.30834961 C-1.8471167 10.88320068 -2.53700684 10.45805176 -3.24780273 10.02001953 C-4.86172401 8.98861938 -6.42247714 7.87480815 -7.96972656 6.74584961 C-7.96972656 6.08584961 -7.96972656 5.42584961 -7.96972656 4.74584961 C-7.30972656 4.74584961 -6.64972656 4.74584961 -5.96972656 4.74584961 C-5.63972656 3.75584961 -5.30972656 2.76584961 -4.96972656 1.74584961 C-1.96972656 -0.25415039 -1.96972656 -0.25415039 0 0 Z " fill="#704ABF" transform="translate(760.9697265625,476.254150390625)"/>
<path d="M0 0 C2.42107258 1.29123871 4.04498474 2.97391168 5.875 5 C3.99182123 10.64953631 -3.09567937 13.15480444 -8.125 16 C-9.259375 16.64324219 -10.39375 17.28648437 -11.5625 17.94921875 C-32.22626285 29.14766343 -55.22090354 35.37657379 -78.125 40 C-77.45259277 40.30067383 -76.78018555 40.60134766 -76.08740234 40.91113281 C-61.27923559 47.56236507 -46.90897853 54.63940449 -32.734375 62.55957031 C-27.66047582 65.360469 -22.51584713 68.02774244 -17.37524414 70.70361328 C-16.65457764 71.0798584 -15.93391113 71.45610352 -15.19140625 71.84375 C-14.50578613 72.19953125 -13.82016602 72.5553125 -13.11376953 72.921875 C-11.138721 73.99256175 -9.24863102 75.16006881 -7.33984375 76.34375 C-4.40142314 78.18721356 -4.40142314 78.18721356 -1.92578125 77.9296875 C0.16253426 76.85155498 1.8682186 75.61451349 3.6875 74.125 C11.78469038 67.96699049 18.68278007 66.65217638 28.875 68 C37.99100551 71.13040189 44.08911841 77.147174 48.8125 85.375 C49.875 88 49.875 88 49.875 90 C66.75051107 87.35137719 82.00292578 81.14116537 97.37768555 73.84521484 C98.16957275 73.47477051 98.96145996 73.10432617 99.77734375 72.72265625 C100.47335693 72.39015869 101.16937012 72.05766113 101.88647461 71.71508789 C103.875 71 103.875 71 107.875 71 C111.875 76.11111111 111.875 76.11111111 111.875 79 C70.51932342 99.19819088 70.51932342 99.19819088 50.875 100 C50.83375 101.134375 50.7925 102.26875 50.75 103.4375 C49.79446801 110.93577185 44.65499756 117.13278764 38.84765625 121.71484375 C31.17613317 126.7127271 23.49748887 128.33331307 14.52734375 126.52734375 C5.58485095 123.96577206 -0.08520745 118.79847381 -4.99609375 111.05078125 C-6.70088036 107.95385056 -7.24879096 105.4641981 -7.22265625 101.98828125 C-7.21782227 100.85229492 -7.21782227 100.85229492 -7.21289062 99.69335938 C-7.20032227 98.51483398 -7.20032227 98.51483398 -7.1875 97.3125 C-7.18298828 96.51521484 -7.17847656 95.71792969 -7.17382812 94.89648438 C-7.1620585 92.93095743 -7.14412348 90.96546915 -7.125 89 C-8.20914185 88.59031982 -8.20914185 88.59031982 -9.31518555 88.17236328 C-12.05011847 87.03124347 -14.51841904 85.72483585 -17.08203125 84.2421875 C-18.49077515 83.43370361 -18.49077515 83.43370361 -19.92797852 82.60888672 C-20.92112061 82.0367041 -21.9142627 81.46452148 -22.9375 80.875 C-31.48731429 75.99796977 -40.08326674 71.37112832 -48.93603516 67.07470703 C-51.49290589 65.81937077 -54.03367174 64.53414099 -56.57421875 63.24609375 C-70.622972 56.12537974 -70.622972 56.12537974 -85.125 50 C-85.3725 50.61359375 -85.62 51.2271875 -85.875 51.859375 C-88.12692749 55.71580083 -91.99175367 56.76506664 -96.125 58 C-103.03836025 59.08021254 -109.31152183 57.97939806 -115.125 54 C-120.49406741 48.59644179 -123.08199569 42.82845139 -123.625 35.25 C-123.48601456 29.10684349 -120.94198338 24.70039001 -117.125 20 C-111.82716286 15.12688398 -106.93183244 13.62371412 -99.88671875 13.7265625 C-93.40104654 14.36870826 -87.95405647 16.62631562 -83.5625 21.5 C-81.6091008 23.93483186 -80.72297313 25.93622754 -80.125 29 C-54.17655939 26.47057218 -26.31107649 16.56994421 -4.78125 1.734375 C-2.125 0 -2.125 0 0 0 Z " fill="#1BB7A3" transform="translate(264.125,476)"/>
<path d="M0 0 C4.66961897 3.28903597 8.50959804 6.79550727 11 12 C12.04103341 19.66894611 12.0711679 27.48897897 7.703125 34.12890625 C3.7280135 38.49605856 -1.97868353 42.68302257 -7.94140625 43.30859375 C-16.42510763 43.61060254 -21.69602448 42.85767637 -28 37 C-32.97232667 31.89682263 -35.15042535 26.58312426 -35.5 19.5625 C-35.27567389 12.72990061 -32.73959815 8.84648186 -28.09765625 4.0234375 C-19.68938444 -3.81997919 -10.38837889 -5.07836704 0 0 Z " fill="#A1FCFD" transform="translate(456,432)"/>
<path d="M0 0 C5.60824388 3.23552532 10.06242522 8.16887774 12.84375 13.984375 C14.40397582 21.78550411 13.908089 28.32052511 9.46875 35.109375 C4.86936261 40.15045722 0.32775506 43.63996978 -6.58203125 44.48046875 C-15.03912228 44.65264905 -19.90256487 43.53153087 -26.01953125 37.6875 C-31.69849451 31.45571731 -33.24691176 25.33976708 -33 17.109375 C-31.94451835 10.35429241 -27.77455292 5.75627738 -22.59375 1.546875 C-15.95852186 -2.47924648 -7.23421141 -2.54537068 0 0 Z " fill="#A1FCFD" transform="translate(588.53125,430.890625)"/>
<path d="M0 0 C4.12036233 -0.08257591 6.63993826 -0.10530378 10.125 2.1875 C10.76695312 2.59355469 11.40890625 2.99960937 12.0703125 3.41796875 C15.49354682 6.22446653 17.7719113 8.60449047 18.50120544 13.06651306 C18.50137161 14.20979568 18.50153778 15.35307831 18.50170898 16.53100586 C18.51108994 17.83263168 18.52047089 19.13425751 18.53013611 20.47532654 C18.51965636 21.88850564 18.50828715 23.30167839 18.49609375 24.71484375 C18.49624884 26.17306083 18.49773953 27.63127833 18.50050354 29.0894928 C18.50188599 32.14179772 18.48935764 35.19363189 18.46655273 38.24584961 C18.43819324 42.14756768 18.44090035 46.04850249 18.45364285 49.95027828 C18.4606174 52.96072512 18.4527902 55.97099275 18.44038582 58.9814167 C18.43588674 60.41944248 18.43552097 61.85748761 18.43945122 63.29551506 C18.4423799 65.31024233 18.42363765 67.3249654 18.40405273 69.33959961 C18.39864975 70.48367783 18.39324677 71.62775604 18.38768005 72.8065033 C17.80678062 77.59163577 16.0934921 80.87613312 12.75 84.3125 C9.47080053 86.32473604 6.78534853 86.55126737 3 87 C3.00999275 86.0951461 3.00999275 86.0951461 3.02018738 85.17201233 C3.32048189 56.63902072 3.59390944 28.34982819 0 0 Z " fill="#E5E6E8" transform="translate(661,416)"/>
<path d="M0 0 C0.64481685 3.83307791 0.79185478 7.17930067 0 11 C-2.81290132 14.68021257 -6.29613976 17.25394681 -10 20 C-11.60748427 21.28753555 -13.21172395 22.57913368 -14.8125 23.875 C-15.62332031 24.514375 -16.43414062 25.15375 -17.26953125 25.8125 C-20.55861428 28.44753076 -23.7834441 31.15223899 -27 33.875 C-27.56436768 34.35179199 -28.12873535 34.82858398 -28.71020508 35.31982422 C-30.8751496 37.15720666 -32.99123204 38.99123204 -35 41 C-24.60482707 52.02873877 -11.67203747 64.10932084 3 69 C4.53515625 71.6171875 4.53515625 71.6171875 6.0625 74.875 C7.58561591 78.09175879 9.02362425 81.03543637 11 84 C-5.46325362 81.22687971 -20.62528996 68.50341242 -33 58 C-33.86214111 57.27441895 -33.86214111 57.27441895 -34.74169922 56.53417969 C-40.65210716 51.52486969 -40.65210716 51.52486969 -43 49 C-43 48.34 -43 47.68 -43 47 C-43.556875 46.773125 -44.11375 46.54625 -44.6875 46.3125 C-47.66159588 44.62449964 -49.72008865 42.53323483 -52 40 C-52 39.34 -52 38.68 -52 38 C-50.19921875 36.80859375 -50.19921875 36.80859375 -47.6875 35.4375 C-40.44258668 31.22486781 -34.31156686 25.84948776 -27.9765625 20.3984375 C-21.89358985 15.17742454 -15.70943117 10.14667936 -9.3125 5.3125 C-8.61680908 4.78293701 -7.92111816 4.25337402 -7.2043457 3.70776367 C-2.24361787 0 -2.24361787 0 0 0 Z " fill="#1EB6A8" transform="translate(326,430)"/>
<path d="M0 0 C-0.09087891 0.64582031 -0.18175781 1.29164063 -0.27539062 1.95703125 C-4.0421849 30.19832985 -3.29931367 58.57153576 -3 87 C-7.21874554 87.20622359 -8.62862951 87.24996091 -12.25 84.8125 C-16.66730586 80.29480082 -17.24975881 76.58610535 -17.29052734 70.37719727 C-17.29724457 69.73261566 -17.30396179 69.08803406 -17.31088257 68.42391968 C-17.32979587 66.30466897 -17.33378305 64.18573597 -17.3359375 62.06640625 C-17.34236919 60.58576835 -17.34909783 59.10513172 -17.35610962 57.62449646 C-17.36806503 54.5252691 -17.37179215 51.42615308 -17.37060547 48.3269043 C-17.37040217 44.36459854 -17.39772252 40.40300913 -17.43214989 36.44087315 C-17.45443486 33.38413746 -17.45844256 30.3275739 -17.45738602 27.2707653 C-17.45973887 25.81037867 -17.4685447 24.34998707 -17.48405075 22.88968086 C-17.50374865 20.84334828 -17.49786056 18.79855708 -17.48583984 16.75219727 C-17.4901149 15.0094326 -17.4901149 15.0094326 -17.49447632 13.23146057 C-16.74837767 8.35561864 -14.51715966 5.15783237 -10.625 2.1875 C-7.13616073 0.60921557 -3.82239989 0 0 0 Z " fill="#E9EAEB" transform="translate(361,416)"/>
<path d="M0 0 C3.96313825 2.11424438 6.54555686 4.49211323 8.99609375 8.21484375 C10.01638312 14.16770448 10.36784414 21.08219907 6.99609375 26.33984375 C3.02347848 30.77256418 -1.7259893 32.93509956 -7.56640625 33.65234375 C-13.01679118 32.9586584 -17.18942776 31.47868247 -20.81640625 27.27734375 C-24.45357971 22.18530091 -25.92055978 18.60821206 -25.00390625 12.21484375 C-23.09524326 6.00883174 -19.67335117 2.27976409 -14.00390625 -0.78515625 C-9.3054992 -2.35129193 -4.61283513 -1.80736815 0 0 Z " fill="#F8FCFB" transform="translate(293.00390625,557.78515625)"/>
<path d="M0 0 C4.45857283 2.44139328 7.68355318 5.53385757 9.6875 10.3125 C9.749375 10.993125 9.81125 11.67375 9.875 12.375 C10.0296875 13.98375 10.0296875 13.98375 10.1875 15.625 C9.70011018 21.47367787 7.63722269 25.65796251 3.4375 29.75 C-1.47943764 32.86805802 -5.24066833 34.07314105 -11.125 33.375 C-16.18387127 31.08240291 -20.05152153 28.04668727 -23.125 23.375 C-24.80017931 18.34946208 -25.12581137 13.12021623 -23.2890625 8.08203125 C-18.37334551 -0.71017398 -9.3896126 -4.18488352 0 0 Z " fill="#FAF8FC" transform="translate(895.125,413.625)"/>
<path d="M0 0 C3.48394399 2.21886166 5.60694726 4.40387127 7.0546875 8.30859375 C7.90342604 13.95422064 7.8645359 18.62890818 5.3671875 23.80859375 C0.37829223 29.20199405 -3.3365162 31.43792081 -10.6953125 31.74609375 C-14.99507864 31.70969912 -17.64678086 31.44007152 -21.0078125 28.68359375 C-25.00610308 24.50001653 -27.07626476 20.6364538 -27.3203125 14.80859375 C-27.05093971 8.10794567 -24.05594937 4.08242877 -19.4453125 -0.4921875 C-13.78523487 -5.01730165 -5.85978002 -2.92989001 0 0 Z " fill="#F8FCFB" transform="translate(145.9453125,414.69140625)"/>
<path d="M0 0 C4.48457521 2.05049007 7.17003168 4.83285704 10 8.8125 C11.68683809 14.18929642 11.72182089 18.83453732 9.9375 24.1875 C7.34614639 27.94914234 5.15684682 30.93219886 1 33 C-4.93425049 33.97549323 -10.09568935 33.90204188 -15.5625 31.3125 C-20.21129372 26.90210595 -22.81438897 23.78416541 -23.25 17.25 C-23.13163809 11.37494521 -21.15652641 6.83411731 -17.125 2.5625 C-12.06209115 -1.42548128 -6.09684988 -1.12765411 0 0 Z " fill="#FBFAFD" transform="translate(744,557)"/>
<path d="M0 0 C5.60824388 3.23552532 10.06242522 8.16887774 12.84375 13.984375 C14.40397582 21.78550411 13.908089 28.32052511 9.46875 35.109375 C4.86936261 40.15045722 0.32775506 43.63996978 -6.58203125 44.48046875 C-15.03912228 44.65264905 -19.90256487 43.53153087 -26.01953125 37.6875 C-31.69849451 31.45571731 -33.24691176 25.33976708 -33 17.109375 C-31.94451835 10.35429241 -27.77455292 5.75627738 -22.59375 1.546875 C-15.95852186 -2.47924648 -7.23421141 -2.54537068 0 0 Z M-24.53125 13.109375 C-25.46133915 15.97866964 -25.66654267 18.60391557 -25.65625 21.609375 C-25.65882813 22.3621875 -25.66140625 23.115 -25.6640625 23.890625 C-25.53283417 26.08291 -25.13456338 28.00256637 -24.53125 30.109375 C-23.87125 30.109375 -23.21125 30.109375 -22.53125 30.109375 C-22.345625 30.7075 -22.16 31.305625 -21.96875 31.921875 C-19.87493489 35.10811539 -17.07523962 36.1133046 -13.53125 37.109375 C-7.81280513 37.74475776 -2.67498617 36.62652249 2.46875 34.109375 C6.15546904 30.42265596 7.34054821 27.62215612 7.78125 22.421875 C7.70233418 17.6606204 6.25705186 13.95501456 3.46875 10.109375 C-1.65700608 6.02969159 -5.8334905 4.75130387 -12.25 4.82421875 C-17.36819981 5.46399373 -21.31076112 9.29249929 -24.53125 13.109375 Z " fill="#54EEF7" transform="translate(588.53125,430.890625)"/>
<path d="M0 0 C4.66961897 3.28903597 8.50959804 6.79550727 11 12 C12.04103341 19.66894611 12.0711679 27.48897897 7.703125 34.12890625 C3.7280135 38.49605856 -1.97868353 42.68302257 -7.94140625 43.30859375 C-16.42510763 43.61060254 -21.69602448 42.85767637 -28 37 C-32.97232667 31.89682263 -35.15042535 26.58312426 -35.5 19.5625 C-35.27567389 12.72990061 -32.73959815 8.84648186 -28.09765625 4.0234375 C-19.68938444 -3.81997919 -10.38837889 -5.07836704 0 0 Z M-27 11 C-29.062889 14.15615509 -29.27072665 16.70152223 -29.25 20.4375 C-29.25515625 21.36433594 -29.2603125 22.29117187 -29.265625 23.24609375 C-28.69907705 29.11986296 -26.26488519 32.0631829 -22 36 C-21.67 36.33 -21.34 36.66 -21 37 C-13.59339134 37.70347708 -6.66065019 38.18580272 -0.5546875 33.46875 C3.73363098 29.41747425 5.24595441 26.35892632 5.5 20.5 C5.29969749 15.5792349 4.42917072 12.69989473 1 9 C-4.29730871 4.91665787 -8.92544384 3.47177446 -15.546875 3.515625 C-20.24687144 4.44364977 -23.74373041 7.61292888 -27 11 Z " fill="#4EEBF8" transform="translate(456,432)"/>
<path d="M0 0 C0.8492807 0.00027191 1.6985614 0.00054382 2.57357788 0.00082397 C27.95210697 0.0379614 52.67005152 1.75205055 77.375 7.75 C78.24318359 7.95987549 79.11136719 8.16975098 80.00585938 8.38598633 C80.80830078 8.5898999 81.61074219 8.79381348 82.4375 9.00390625 C83.15035156 9.18381104 83.86320313 9.36371582 84.59765625 9.54907227 C86.375 10.1875 86.375 10.1875 88.375 12.1875 C83.75631857 11.64865383 79.2110867 11.00627601 74.64086914 10.13427734 C66.39207477 8.56184155 58.16495958 7.55816593 49.79980469 6.83422852 C43.56471446 6.28235723 43.56471446 6.28235723 41.375 5.1875 C39.93615345 5.08280367 38.49264557 5.03883086 37.05004883 5.02636719 C36.14811798 5.01690063 35.24618713 5.00743408 34.31692505 4.99768066 C33.3319101 4.99328979 32.34689514 4.98889893 31.33203125 4.984375 C30.30850555 4.97740601 29.28497986 4.97043701 28.23043823 4.96325684 C24.88275123 4.94571167 21.53523127 4.93952109 18.1875 4.9375 C17.05164459 4.93649292 15.91578918 4.93548584 14.74551392 4.93444824 C-15.72350083 4.9527685 -45.70817068 6.99480995 -74.87744141 16.43286133 C-75.7029248 16.68962646 -76.5284082 16.9463916 -77.37890625 17.2109375 C-78.46667358 17.56551025 -78.46667358 17.56551025 -79.57641602 17.92724609 C-82.24297421 18.26600799 -83.43658195 17.70788716 -85.625 16.1875 C-85.955 15.1975 -86.285 14.2075 -86.625 13.1875 C-80.1754061 10.59841571 -73.69326386 8.80013928 -66.9375 7.1875 C-65.84332764 6.92622314 -64.74915527 6.66494629 -63.62182617 6.39575195 C-42.58059962 1.51289546 -21.5510903 -0.02604345 0 0 Z " fill="#E6EAEE" transform="translate(508.625,315.8125)"/>
<path d="M0 0 C2.75 0.3125 2.75 0.3125 5.03125 2.19140625 C10.97588023 6.82924276 19.88324303 9.09349666 27.42578125 8.703125 C34.8803043 7.45026398 40.93004255 5.10540614 46.75 0.3125 C49.9375 -0.0625 49.9375 -0.0625 52.75 0.3125 C54.75 2.3125 54.75 2.3125 54.875 5.0625 C52.9142283 10.72695158 48.41213847 12.97523974 43.23046875 15.578125 C32.71668045 19.94989056 20.60812922 19.40244635 9.75 16.3125 C5.03711213 14.20348268 0.42542831 11.98792831 -3.25 8.3125 C-3.4375 4.75 -3.4375 4.75 -3.25 1.3125 C-2.25 0.3125 -2.25 0.3125 0 0 Z " fill="#1B4465" transform="translate(487.25,518.6875)"/>
<path d="M0 0 C3.36637548 2.29525601 4.92706799 4.22913599 6.75 7.875 C7.4006249 13.07999921 6.660372 16.509442 3.75 20.875 C-0.27229594 24.51422013 -3.69208374 25.63155544 -9 25.3984375 C-13.70493399 24.30388688 -16.95294952 20.95788562 -19.44921875 16.94921875 C-20.88406216 13.23262437 -20.19191666 9.66977214 -19.25 5.875 C-14.63399604 -1.60610987 -8.05902504 -2.78966251 0 0 Z " fill="#FAF8FC" transform="translate(787.25,310.125)"/>
<path d="M0 0 C4.11639609 1.77753468 6.76553623 4.11037788 9 8 C9.8684538 12.37195973 10.03318874 16.25176905 7.71875 20.16796875 C3.01993686 25.7535677 3.01993686 25.7535677 -0.953125 26.23828125 C-6.486723 26.41708799 -9.72497829 25.86787679 -14 22 C-16.89991282 17.65013077 -17.89274501 14.17792104 -17 9 C-12.28632105 2.12588486 -8.54678422 -0.90572858 0 0 Z " fill="#F8FCFB" transform="translate(247,309)"/>
<path d="M0 0 C3.42484369 2.28322912 4.97163392 4.19326784 6.8125 7.875 C7.43749339 12.24995374 7.16095954 14.250176 5 18.125 C4.278125 19.0325 3.55625 19.94 2.8125 20.875 C2.39355469 21.41640625 1.97460938 21.9578125 1.54296875 22.515625 C-1.65469937 25.02756294 -5.39467513 24.39113104 -9.296875 24.296875 C-12.1875 23.875 -12.1875 23.875 -15.3125 21.625 C-18.68149167 16.68381222 -19.55822087 13.98336224 -18.73046875 8.0625 C-17.75198289 4.12039868 -15.58890125 1.8898078 -12.375 -0.4375 C-7.97858922 -1.8192291 -4.31032366 -1.5212907 0 0 Z " fill="#F7FCFB" transform="translate(169.1875,500.125)"/>
<path d="M0 0 C3.96047717 1.68807223 5.50951276 2.63933417 7.33203125 6.6640625 C8.60728728 16.06907575 8.60728728 16.06907575 6.78125 19.08984375 C4.24262328 22.22755643 2.45963842 24.16809631 -1.59375 24.625 C-9.42096394 24.90038236 -9.42096394 24.90038236 -13.23046875 22.1015625 C-13.86984375 21.1940625 -14.50921875 20.2865625 -15.16796875 19.3515625 C-15.60109375 18.7534375 -16.03421875 18.1553125 -16.48046875 17.5390625 C-17.57393396 14.05985501 -17.94614209 10.89950536 -17.16796875 7.3515625 C-12.90794871 0.53030342 -8.20322833 -2.4535782 0 0 Z " fill="#FAF8FC" transform="translate(865.16796875,499.6484375)"/>
<path d="M0 0 C5.40105478 3.90651633 8.6392947 7.36656165 10 14 C10.95136917 20.68336839 9.70333525 26.3366823 6 32 C1.35066446 37.09582706 -3.21979385 40.69215088 -10.26171875 41.265625 C-11.39222656 41.26046875 -12.52273438 41.2553125 -13.6875 41.25 C-14.82574219 41.25515625 -15.96398437 41.2603125 -17.13671875 41.265625 C-20 41 -20 41 -22 39 C-21.34 38.34 -20.68 37.68 -20 37 C-18.309072 37.06359045 -16.62053222 37.19983209 -14.9375 37.375 C-10.03272468 37.47812274 -7.708513 36.5902625 -4 33.375 C0.39631828 28.89217099 2.72192224 25.4629744 3.4375 19.125 C3.31456412 15.09116631 1.77360851 12.4190256 -0.17578125 8.96484375 C-1.53804595 5.71735965 -0.8377867 3.35114681 0 0 Z " fill="#41E4F7" transform="translate(592,434)"/>
<path d="M0 0 C0.33 0 0.66 0 1 0 C1.06961858 8.50167538 1.1228712 17.00323094 1.15543652 25.50512123 C1.17106904 29.45322387 1.1922628 33.40113097 1.22631836 37.34912109 C1.25899851 41.16167489 1.27687117 44.974041 1.28463173 48.78672409 C1.29015977 50.23874235 1.30095474 51.69075074 1.31719017 53.14268875 C1.33908046 55.18210005 1.34196223 57.22074336 1.34057617 59.26025391 C1.34723801 60.41941315 1.35389984 61.57857239 1.36076355 62.77285767 C0.82230817 67.58950881 -0.88990224 70.85906619 -4.25 74.3125 C-7 76 -7 76 -14 77 C-13.67 62.81 -13.34 48.62 -13 34 C-12.67 34 -12.34 34 -12 34 C-12 43.24 -12 52.48 -12 62 C-10.35 61.34 -8.7 60.68 -7 60 C-4.69 60 -2.38 60 0 60 C0 40.2 0 20.4 0 0 Z " fill="#A9B3BA" transform="translate(678,426)"/>
<path d="M0 0 C0.33 0 0.66 0 1 0 C1.33 11.88 1.66 23.76 2 36 C-4 36 -4 36 -7.25 33.8125 C-11.49377219 29.47227844 -12.09157376 26.62065706 -12.125 20.6875 C-12.08375 19.140625 -12.0425 17.59375 -12 16 C-8.04 17.32 -4.08 18.64 0 20 C0 13.4 0 6.8 0 0 Z " fill="#B4BBBF" transform="translate(356,467)"/>
<path d="M0 0 C0.33 0 0.66 0 1 0 C1.9309556 15.70211778 1.9309556 15.70211778 -2.296875 22.12890625 C-5.86419788 26.04805226 -10.29679658 28.64839829 -15 31 C-17.37402501 31.07116382 -19.75000677 31.08409085 -22.125 31.0625 C-23.40632813 31.05347656 -24.68765625 31.04445313 -26.0078125 31.03515625 C-27.48894531 31.01775391 -27.48894531 31.01775391 -29 31 C-29 30.67 -29 30.34 -29 30 C-27.96875 29.731875 -26.9375 29.46375 -25.875 29.1875 C-23.25594496 28.45055941 -21.2256969 27.61284845 -18.75 26.375 C-16 25 -16 25 -13 25 C-13 24.34 -13 23.68 -13 23 C-11.34634594 21.97862543 -9.67623498 20.98387706 -8 20 C-3.54537877 16.77287099 -3.54537877 16.77287099 -1 12 C-0.77674186 9.94106379 -0.59294241 7.87766347 -0.4375 5.8125 C-0.35371094 4.72582031 -0.26992188 3.63914062 -0.18359375 2.51953125 C-0.09271484 1.27236328 -0.09271484 1.27236328 0 0 Z " fill="#40E2F4" transform="translate(466,444)"/>
<path d="M0 0 C1.875 0.3125 1.875 0.3125 4 1 C4.66 1.99 5.32 2.98 6 4 C11.30214708 6.86837465 15.4807539 7.40004629 21.4375 7.1875 C22.16904297 7.17396484 22.90058594 7.16042969 23.65429688 7.14648438 C25.43652422 7.11153874 27.21836573 7.05774805 29 7 C26.84531574 9.58663748 25.74852928 10.89982917 22.34375 11.35546875 C20.93609375 11.27232422 20.93609375 11.27232422 19.5 11.1875 C15.64412542 10.93243377 15.64412542 10.93243377 11.9140625 11.68359375 C10 12 10 12 7.9296875 10.7421875 C1.09945323 4.53524457 1.09945323 4.53524457 0 0 Z " fill="#49EAF9" transform="translate(558,461)"/>
<path d="M0 0 C8.114265 0.47695381 15.70055962 1.91252833 23.5625 3.9375 C24.64080078 4.20240234 25.71910156 4.46730469 26.83007812 4.74023438 C34.74174107 6.74174107 34.74174107 6.74174107 37 9 C32.38114492 8.46113357 27.83571424 7.81891005 23.26538086 6.9465332 C12.9024813 4.97187045 2.50219547 3.92315058 -8 3 C-8 2.67 -8 2.34 -8 2 C-5.36 1.67 -2.72 1.34 0 1 C0 0.67 0 0.34 0 0 Z " fill="#A2B1C0" transform="translate(560,319)"/>
<path d="M0 0 C1.13356934 -0.01804687 2.26713867 -0.03609375 3.43505859 -0.0546875 C4.89262573 -0.08272461 4.89262573 -0.08272461 6.37963867 -0.11132812 C9.55726874 0.13149839 12.19088685 0.98658774 15.16552734 2.1015625 C15.16552734 2.4315625 15.16552734 2.7615625 15.16552734 3.1015625 C-2.65447266 2.7715625 -20.47447266 2.4415625 -38.83447266 2.1015625 C-38.83447266 1.7715625 -38.83447266 1.4415625 -38.83447266 1.1015625 C-34.08804401 0.95664515 -29.34154578 0.81435585 -24.5949707 0.67431641 C-22.98622606 0.62650491 -21.37750118 0.57802257 -19.76879883 0.52880859 C-15.16357313 0.38816911 -10.55833056 0.25910379 -5.95220947 0.15136719 C-3.96804683 0.10470388 -1.98401546 0.05255001 0 0 Z " fill="#D2D9E0" transform="translate(547.83447265625,317.8984375)"/>
<path d="M0 0 C2.64752004 2.57784846 4.94432065 4.91648098 7 8 C3.04 9.98 3.04 9.98 -1 12 C-2.32 10.68 -3.64 9.36 -5 8 C-3.38731308 5.28775382 -1.75098126 2.62647188 0 0 Z " fill="#51D6C6" transform="translate(274,457)"/>
<path d="M0 0 C0.33 0 0.66 0 1 0 C0.99097656 0.61746094 0.98195313 1.23492187 0.97265625 1.87109375 C1.23126765 9.25838463 3.65801465 13.87962539 9 19 C12.28519475 20.09506492 14.73663415 20.09960608 18.1875 20.0625 C19.27417969 20.05347656 20.36085938 20.04445313 21.48046875 20.03515625 C22.31191406 20.02355469 23.14335937 20.01195312 24 20 C21.15437318 22.84562682 19.09114437 22.36741221 15.125 22.4375 C13.27261719 22.49744141 13.27261719 22.49744141 11.3828125 22.55859375 C8 22 8 22 5.7421875 19.59765625 C5.16726563 18.74042969 4.59234375 17.88320313 4 17 C3.01 16.34 2.02 15.68 1 15 C-0.23624069 11.8069669 -0.10285971 8.6402154 -0.0625 5.25 C-0.05347656 4.26515625 -0.04445313 3.2803125 -0.03515625 2.265625 C-0.02355469 1.51796875 -0.01195312 0.7703125 0 0 Z " fill="#74F7FD" transform="translate(427,447)"/>
<path d="M0 0 C5.52677733 -0.19392201 9.75614911 0.2520497 15 2 C14.67 2.66 14.34 3.32 14 4 C11.87527424 4.05386629 9.75016348 4.09273071 7.625 4.125 C5.84996094 4.15980469 5.84996094 4.15980469 4.0390625 4.1953125 C1 4 1 4 -1 2 C-0.67 1.34 -0.34 0.68 0 0 Z " fill="#39DFF2" transform="translate(571,471)"/>
<path d="M0 0 C0.33 0.99 0.66 1.98 1 3 C-2.00313748 4.50156874 -4.79067522 4.09281204 -8.125 4.0625 C-9.40632813 4.05347656 -10.68765625 4.04445313 -12.0078125 4.03515625 C-13.48894531 4.01775391 -13.48894531 4.01775391 -15 4 C-15 3.67 -15 3.34 -15 3 C-13.4221875 2.566875 -13.4221875 2.566875 -11.8125 2.125 C-8.12939099 1.12134655 -8.12939099 1.12134655 -5.25 -0.1875 C-3 -1 -3 -1 0 0 Z " fill="#31DAEF" transform="translate(452,471)"/>
<path d="M0 0 C0.56847656 0.28875 1.13695312 0.5775 1.72265625 0.875 C8.88282556 4.31761897 14.18282697 4.52530205 22 3 C20.9296875 4.47265625 20.9296875 4.47265625 19 6 C15.8203125 6.43359375 15.8203125 6.43359375 12.125 6.4375 C10.30355469 6.46650391 10.30355469 6.46650391 8.4453125 6.49609375 C4.46373811 5.92278315 2.78978399 4.84812548 0 2 C0 1.34 0 0.68 0 0 Z " fill="#6FF7FD" transform="translate(566,463)"/>
<path d="M0 0 C1.12894876 0.93274109 2.25300876 1.87140122 3.375 2.8125 C4.00148438 3.33457031 4.62796875 3.85664063 5.2734375 4.39453125 C7 6 7 6 9 9 C8.67 9.99 8.34 10.98 8 12 C0.33257403 6.03416856 0.33257403 6.03416856 -1 1 C-0.67 0.67 -0.34 0.34 0 0 Z " fill="#42E0F2" transform="translate(424,460)"/>
<path d="M0 0 C-1.0625 1.5 -1.0625 1.5 -3 3 C-7.36706908 3.38991688 -9.30513897 3.46324069 -13 1 C-8.23947038 -0.97387813 -5.03511899 -1.0070238 0 0 Z " fill="#3CE9FA" transform="translate(446,471)"/>
<path d="M0 0 C0 3.44013793 -0.31060514 3.74217079 -2.625 6.0625 C-5.49302867 8.8144418 -8.09225288 10.06958402 -12 11 C-8.19588166 7.08060535 -4.18423892 3.50897269 0 0 Z " fill="#26BAAD" transform="translate(312,439)"/>
<path d="M0 0 C0.99 0.33 1.98 0.66 3 1 C2.04270084 2.12588014 1.08412105 3.2506715 0.125 4.375 C-0.40867187 5.00148438 -0.94234375 5.62796875 -1.4921875 6.2734375 C-2.61432007 7.55836651 -3.79371975 8.79371975 -5 10 C-5.3125 7.8125 -5.3125 7.8125 -5 5 C-2.5 2.1875 -2.5 2.1875 0 0 Z " fill="#C8FDFD" transform="translate(570,438)"/>
<path d="M0 0 C1.258125 0.12375 2.51625 0.2475 3.8125 0.375 C4.87404297 0.47941406 4.87404297 0.47941406 5.95703125 0.5859375 C8 1 8 1 11 3 C6.71 3 2.42 3 -2 3 C-1.34 2.01 -0.68 1.02 0 0 Z " fill="#D4DBE2" transform="translate(552,318)"/>
<path d="M0 0 C2.02054804 1.64169528 4.02043058 3.30911778 6 5 C6 5.33 6 5.66 6 6 C4.02 6.33 2.04 6.66 0 7 C0 4.69 0 2.38 0 0 Z " fill="#70DFD3" transform="translate(275,459)"/>
<path d="M0 0 C0 3 0 3 -1 5 C-0.04134491 7.33075929 -0.04134491 7.33075929 3 9 C2.01 9.33 1.02 9.66 0 10 C-1.32 8.68 -2.64 7.36 -4 6 C-1.125 1.125 -1.125 1.125 0 0 Z " fill="#40CCBA" transform="translate(273,459)"/>
<path d="M0 0 C2.12038635 2.61514317 4.13091744 5.19637616 6 8 C4.35 7.67 2.7 7.34 1 7 C0 4 0 4 0 0 Z " fill="#31B5AA" transform="translate(331,506)"/>
<path d="M0 0 C0.66 0.33 1.32 0.66 2 1 C-0.31 3.31 -2.62 5.62 -5 8 C-5.33 7.34 -5.66 6.68 -6 6 C-2.25 1.125 -2.25 1.125 0 0 Z " fill="#D4F5ED" transform="translate(157,500)"/>
<path d="M0 0 C0.66 0.33 1.32 0.66 2 1 C-0.31 3.31 -2.62 5.62 -5 8 C-5.66 7.67 -6.32 7.34 -7 7 C-4.78071806 4.09197539 -3.07030857 2.04687238 0 0 Z " fill="#25CAA6" transform="translate(151,493)"/>
<path d="M0 0 C0.99 0.33 1.98 0.66 3 1 C1.8803014 2.00593243 0.7540588 3.0045849 -0.375 4 C-1.00148438 4.556875 -1.62796875 5.11375 -2.2734375 5.6875 C-4 7 -4 7 -6 7 C-6 6.34 -6 5.68 -6 5 C-5.34 5 -4.68 5 -4 5 C-3.67 4.01 -3.34 3.02 -3 2 C-2.01 1.34 -1.02 0.68 0 0 Z " fill="#8565C7" transform="translate(759,476)"/>
<path d="M0 0 C-0.66 1.32 -1.32 2.64 -2 4 C-3.32 3.67 -4.64 3.34 -6 3 C-6 2.34 -6 1.68 -6 1 C-4 0 -4 0 0 0 Z " fill="#2D5370" transform="translate(417,590)"/>
</svg>
