<svg xmlns="http://www.w3.org/2000/svg" viewBox="0 0 256 256" role="img" aria-label="NexusAI launcher logo">
  <defs>
    <linearGradient id="bg" x1="0" x2="1" y1="0" y2="1">
      <stop offset="0%" stop-color="#183f63" />
      <stop offset="100%" stop-color="#0e2a45" />
    </linearGradient>
    <linearGradient id="face" x1="0" x2="0" y1="0" y2="1">
      <stop offset="0%" stop-color="#24c4a8" />
      <stop offset="100%" stop-color="#16aa93" />
    </linearGradient>
    <linearGradient id="hat" x1="0" x2="1" y1="0" y2="1">
      <stop offset="0%" stop-color="#8b66d8" />
      <stop offset="100%" stop-color="#6449bc" />
    </linearGradient>
  </defs>

  <circle cx="128" cy="128" r="124" fill="url(#bg)" />

  <path d="M74 85 C92 60 164 60 182 85 L182 101 C160 94 96 94 74 101 Z" fill="url(#hat)" />
  <rect x="74" y="97" width="108" height="10" rx="5" fill="#4f389e" />

  <rect x="58" y="108" width="140" height="96" rx="42" fill="url(#face)" />
  <rect x="70" y="118" width="116" height="74" rx="34" fill="#1dd0b0" opacity="0.6" />

  <circle cx="98" cy="150" r="11" fill="#f4fbff" />
  <circle cx="158" cy="150" r="11" fill="#f4fbff" />
  <circle cx="98" cy="150" r="5" fill="#153c5c" />
  <circle cx="158" cy="150" r="5" fill="#153c5c" />

  <path d="M99 181 C108 192 148 192 157 181" fill="none" stroke="#10324f" stroke-width="8" stroke-linecap="round" />

  <circle cx="128" cy="205" r="6" fill="#8ff2e0" opacity="0.95" />
</svg>
